<?xml version="1.0" encoding="utf-8"?>
<!-- Generator: Adobe Illustrator 25.0.0, SVG Export Plug-In . SVG Version: 6.00 Build 0)  -->
<svg version="1.1" id="Layer_1" xmlns="http://www.w3.org/2000/svg" xmlns:xlink="http://www.w3.org/1999/xlink" x="0px" y="0px"
	 viewBox="0 0 841.89 595.28" style="enable-background:new 0 0 841.89 595.28;" xml:space="preserve">
<style type="text/css">
	.st0{fill-rule:evenodd;clip-rule:evenodd;fill:url(#SVGID_1_);}
	.st1{fill-rule:evenodd;clip-rule:evenodd;fill:url(#SVGID_2_);}
	.st2{fill-rule:evenodd;clip-rule:evenodd;fill:url(#SVGID_3_);}
	.st3{fill-rule:evenodd;clip-rule:evenodd;fill:url(#SVGID_4_);}
	.st4{fill-rule:evenodd;clip-rule:evenodd;fill:url(#SVGID_5_);}
	.st5{fill-rule:evenodd;clip-rule:evenodd;fill:url(#SVGID_6_);}
	.st6{fill-rule:evenodd;clip-rule:evenodd;fill:url(#SVGID_7_);}
	.st7{fill-rule:evenodd;clip-rule:evenodd;fill:url(#SVGID_8_);}
	.st8{fill-rule:evenodd;clip-rule:evenodd;fill:url(#SVGID_9_);}
	.st9{fill-rule:evenodd;clip-rule:evenodd;fill:url(#SVGID_10_);}
	.st10{fill-rule:evenodd;clip-rule:evenodd;fill:url(#SVGID_11_);}
	.st11{fill-rule:evenodd;clip-rule:evenodd;fill:url(#SVGID_12_);}
	.st12{fill-rule:evenodd;clip-rule:evenodd;fill:url(#SVGID_13_);}
	.st13{fill-rule:evenodd;clip-rule:evenodd;fill:url(#SVGID_14_);}
	.st14{fill-rule:evenodd;clip-rule:evenodd;fill:url(#SVGID_15_);}
	.st15{fill-rule:evenodd;clip-rule:evenodd;fill:url(#SVGID_16_);}
	.st16{fill-rule:evenodd;clip-rule:evenodd;fill:url(#SVGID_17_);}
	.st17{fill-rule:evenodd;clip-rule:evenodd;fill:url(#SVGID_18_);}
	.st18{fill-rule:evenodd;clip-rule:evenodd;fill:url(#SVGID_19_);}
	.st19{fill:#414141;}
	.st20{fill-rule:evenodd;clip-rule:evenodd;fill:url(#SVGID_20_);}
	.st21{fill-rule:evenodd;clip-rule:evenodd;fill:url(#SVGID_21_);}
	.st22{fill-rule:evenodd;clip-rule:evenodd;fill:url(#SVGID_22_);}
	.st23{fill-rule:evenodd;clip-rule:evenodd;fill:url(#SVGID_23_);}
	.st24{fill-rule:evenodd;clip-rule:evenodd;fill:url(#SVGID_24_);}
	.st25{fill-rule:evenodd;clip-rule:evenodd;fill:url(#SVGID_25_);}
	.st26{fill:#010101;}
	.st27{fill-rule:evenodd;clip-rule:evenodd;fill:url(#SVGID_26_);}
	.st28{fill-rule:evenodd;clip-rule:evenodd;fill:url(#SVGID_27_);}
	.st29{fill-rule:evenodd;clip-rule:evenodd;fill:url(#SVGID_28_);}
	.st30{fill-rule:evenodd;clip-rule:evenodd;fill:url(#SVGID_29_);}
	.st31{fill-rule:evenodd;clip-rule:evenodd;fill:url(#SVGID_30_);}
	.st32{fill-rule:evenodd;clip-rule:evenodd;fill:url(#SVGID_31_);}
	.st33{fill-rule:evenodd;clip-rule:evenodd;fill:url(#SVGID_32_);}
	.st34{fill-rule:evenodd;clip-rule:evenodd;fill:url(#SVGID_33_);}
</style>
<g>
	<linearGradient id="SVGID_1_" gradientUnits="userSpaceOnUse" x1="366.8741" y1="178.046" x2="366.8741" y2="268.2452">
		<stop  offset="0" style="stop-color:#1D76B8"/>
		<stop  offset="1" style="stop-color:#142C51"/>
	</linearGradient>
	<path class="st0" d="M368.51,193.67h-0.09h-0.1c-1.97,0.01-4.41,0.13-6.14,0.13c-1.18,0-3.8-0.12-6.07-0.13h-0.11h-0.11h-0.03
		h-0.03c-0.6,0.01-0.89,0.09-0.9,0.38v0.01v0.01c0.01,0.29,0.27,0.38,0.74,0.38c0.61,0,1.35,0.05,1.7,0.13
		c1.44,0.3,1.79,1,1.88,2.49c0.09,1.4,0.09,2.62,0.09,9.25v7.68c0,4.02,0,7.46-0.22,9.3c-0.17,1.27-0.39,2.22-1.27,2.4
		c-0.39,0.09-0.92,0.17-1.57,0.17c-0.52,0-0.7,0.13-0.7,0.35c0,0.31,0.31,0.44,0.87,0.44c1.75,0,4.5-0.13,5.5-0.13
		c1.14,0,3.88,0.13,6.77,0.13c0.48,0,0.83-0.13,0.83-0.44c0-0.22-0.22-0.35-0.7-0.35c-0.65,0-1.62-0.09-2.23-0.17
		c-1.31-0.18-1.57-1.13-1.7-2.36c-0.22-1.88-0.22-5.33-0.22-9.34v-17.46c0-0.48,0.13-0.74,0.35-0.83c0.39-0.13,1.05-0.17,1.7-0.17
		c1,0,2.79,0.26,4.36,1.7c2.44,2.18,2.58,5.11,2.58,6.55c0,4.45-3.4,7.2-5.85,7.2c-0.92,0-1.22,0.13-1.22,0.48
		c0,0.3,0.31,0.35,0.53,0.39c0.22,0.04,0.7,0.04,0.92,0.04c6.2,0,10.74-4.36,10.74-10.56c0-2.31-1.22-4.28-2.18-5.2
		C375.93,195.5,373.97,193.67,368.51,193.67"/>
	<linearGradient id="SVGID_2_" gradientUnits="userSpaceOnUse" x1="401.7611" y1="178.046" x2="401.7611" y2="268.2452">
		<stop  offset="0" style="stop-color:#1D76B8"/>
		<stop  offset="1" style="stop-color:#142C51"/>
	</linearGradient>
	<path class="st1" d="M418.49,193.67h-0.03h-0.03h-0.08h-0.08c-1.71,0.01-4.32,0.13-5.34,0.13c-1.14,0-3.76-0.12-6.06-0.13h-0.11
		h-0.11h-0.03h-0.03c-0.57,0.01-0.86,0.1-0.86,0.39c0,0.31,0.26,0.39,0.74,0.39c0.61,0,1.35,0.05,1.7,0.13
		c1.44,0.3,1.79,1,1.88,2.49c0.09,1.4,0.09,2.62,0.09,9.25v0.92c0,0.22-0.13,0.31-0.26,0.31h-16.67c-0.13,0-0.26-0.09-0.26-0.31
		v-0.92c0-6.63,0-7.85,0.09-9.25c0.09-1.53,0.44-2.27,1.62-2.49c0.52-0.09,0.92-0.13,1.27-0.13c0.52,0,0.79-0.09,0.79-0.39
		c0-0.3-0.29-0.39-0.86-0.39h-0.03h-0.03h-0.08h-0.08c-1.71,0.01-4.32,0.13-5.34,0.13c-1.14,0-3.76-0.12-6.06-0.13h-0.11H384h-0.03
		h-0.03c-0.55,0.01-0.84,0.09-0.86,0.37v0.06c0.02,0.28,0.28,0.36,0.74,0.36c0.61,0,1.35,0.05,1.7,0.13c1.44,0.3,1.79,1,1.88,2.49
		c0.09,1.4,0.09,2.62,0.09,9.25v7.68c0,4.02,0,7.46-0.22,9.3c-0.18,1.27-0.39,2.22-1.27,2.4c-0.39,0.09-0.92,0.17-1.57,0.17
		c-0.52,0-0.7,0.13-0.7,0.35c0,0.31,0.31,0.44,0.87,0.44c1.75,0,4.5-0.13,5.5-0.13c1.22,0,3.97,0.13,6.81,0.13
		c0.52,0,0.87-0.13,0.87-0.44c0-0.22-0.22-0.35-0.7-0.35c-0.65,0-1.61-0.09-2.22-0.17c-1.31-0.18-1.57-1.13-1.7-2.36
		c-0.22-1.88-0.22-5.33-0.22-9.34v-3.84c0-0.22,0.13-0.26,0.26-0.26h16.67c0.13,0,0.26,0.09,0.26,0.26v3.84c0,4.02,0,7.46-0.22,9.3
		c-0.17,1.27-0.39,2.22-1.27,2.4c-0.39,0.09-0.92,0.17-1.57,0.17c-0.52,0-0.7,0.13-0.7,0.35c0,0.31,0.31,0.44,0.92,0.44
		c1.7,0,4.45-0.13,5.46-0.13c1.22,0,3.97,0.13,6.81,0.13c0.52,0,0.87-0.13,0.87-0.44c0-0.22-0.22-0.35-0.7-0.35
		c-0.65,0-1.61-0.09-2.23-0.17c-1.31-0.18-1.57-1.13-1.7-2.36c-0.22-1.88-0.22-5.33-0.22-9.34v-7.68c0-6.63,0-7.85,0.09-9.25
		c0.09-1.53,0.44-2.27,1.61-2.49c0.52-0.09,0.92-0.13,1.27-0.13c0.52,0,0.78-0.09,0.78-0.39
		C419.35,193.77,419.06,193.67,418.49,193.67"/>
	<linearGradient id="SVGID_3_" gradientUnits="userSpaceOnUse" x1="442.0979" y1="178.046" x2="442.0979" y2="268.2452">
		<stop  offset="0" style="stop-color:#1D76B8"/>
		<stop  offset="1" style="stop-color:#142C51"/>
	</linearGradient>
	<path class="st2" d="M453.82,210.99L453.82,210.99c0-9.78-5.63-15.84-12.79-15.84c-5.02,0-10.74,2.79-10.74,13.66
		c0,9.08,5.02,16.28,13.4,16.28C446.75,225.09,453.82,223.61,453.82,210.99z M424.27,210.08v0.18c0.04,7.71,5.11,17.02,17.59,17.02
		c11.08,0,18.07-7.9,18.07-17.89c0-10-6.77-16.32-17.63-16.32C429.25,193.06,424.31,202.63,424.27,210.08z"/>
	<linearGradient id="SVGID_4_" gradientUnits="userSpaceOnUse" x1="476.4576" y1="178.046" x2="476.4576" y2="268.2452">
		<stop  offset="0" style="stop-color:#1D76B8"/>
		<stop  offset="1" style="stop-color:#142C51"/>
	</linearGradient>
	<path class="st3" d="M471.12,226.67h0.03h0.03h0.08h0.08c1.75-0.01,4.36-0.13,5.33-0.13c1.18,0,3.8,0.12,6.58,0.13h0.13h0.14h0.02
		h0.02c0.46-0.01,0.79-0.14,0.79-0.44c0-0.22-0.22-0.35-0.7-0.35c-0.65,0-1.61-0.09-2.22-0.17c-1.31-0.18-1.57-1.13-1.7-2.36
		c-0.22-1.88-0.22-5.33-0.22-9.34v-17.89l5.5,0.13c3.89,0.09,5.06,1.31,5.15,2.45l0.04,0.48c0.05,0.65,0.13,0.87,0.48,0.87
		c0.26,0,0.35-0.26,0.39-0.7c0-1.13,0.13-4.15,0.13-5.06c0-0.65-0.05-0.92-0.35-0.92c-0.18,0-0.53,0.09-1.18,0.22
		c-0.65,0.09-1.61,0.22-3.01,0.22h-17.29c-1.44,0-3.1-0.09-4.37-0.22c-1.09-0.09-1.53-0.52-1.88-0.52c-0.26,0-0.39,0.26-0.52,0.83
		c-0.09,0.34-0.89,4.2-0.92,4.98v0.1v0.02c0.01,0.42,0.11,0.61,0.39,0.61c0.26,0,0.39-0.17,0.48-0.52c0.09-0.35,0.3-0.87,0.74-1.53
		c0.65-0.96,1.7-1.18,4.23-1.26l6.5-0.17v17.89c0,4.02,0,7.46-0.22,9.3c-0.13,1.27-0.39,2.22-1.26,2.4
		c-0.39,0.09-0.92,0.17-1.57,0.17c-0.52,0-0.7,0.13-0.7,0.35C470.3,226.52,470.59,226.66,471.12,226.67"/>
	<linearGradient id="SVGID_5_" gradientUnits="userSpaceOnUse" x1="511.2999" y1="178.046" x2="511.2999" y2="268.2452">
		<stop  offset="0" style="stop-color:#1D76B8"/>
		<stop  offset="1" style="stop-color:#142C51"/>
	</linearGradient>
	<path class="st4" d="M523.02,210.99L523.02,210.99c0-9.78-5.63-15.84-12.79-15.84c-5.02,0-10.74,2.79-10.74,13.66
		c0,9.08,5.02,16.28,13.4,16.28C515.95,225.09,523.02,223.61,523.02,210.99z M493.47,210.17c0-7.46,4.93-17.11,18.02-17.11
		c10.87,0,17.63,6.33,17.63,16.32c0,9.99-6.98,17.89-18.07,17.89C498.53,227.28,493.47,217.89,493.47,210.17z"/>
	<linearGradient id="SVGID_6_" gradientUnits="userSpaceOnUse" x1="554.0624" y1="178.046" x2="554.0624" y2="268.2452">
		<stop  offset="0" style="stop-color:#1D76B8"/>
		<stop  offset="1" style="stop-color:#142C51"/>
	</linearGradient>
	<path class="st5" d="M566.32,192.71h-0.04c-0.38,0.01-0.64,0.36-0.94,1.05l-11.87,24.92l-11.92-24.62
		c-0.56-1.12-0.82-1.35-1.16-1.35h-0.03c-0.34,0.01-0.6,0.41-0.73,1.14l-4.32,28.46c-0.22,1.48-0.57,3.18-1.79,3.45
		c-0.65,0.13-0.96,0.13-1.31,0.13c-0.42,0-0.68,0.08-0.7,0.29v0.06c0.02,0.36,0.36,0.44,0.78,0.44c1.4,0,3.49-0.13,4.32-0.13
		c0.79,0,2.75,0.13,4.58,0.13c0.65,0,1.05-0.09,1.05-0.48c0-0.22-0.31-0.31-0.66-0.31c-0.44,0-1.05-0.04-1.83-0.22
		c-0.74-0.17-1.31-0.57-1.31-1.4c0-0.7,0.04-1.27,0.13-2.05l2.27-17.37h0.17c1.53,3.27,4.15,8.77,4.54,9.69
		c0.52,1.22,3.97,7.9,5.02,9.91c0.7,1.31,1.13,2.18,1.53,2.18c0.39,0,0.61-0.39,1.62-2.44l9.51-19.82h0.18l2.62,19.2
		c0.17,1.22,0.04,1.79-0.22,1.88c-0.3,0.13-0.48,0.26-0.48,0.48c0,0.26,0.26,0.39,1.26,0.48c1.75,0.13,7.77,0.26,8.86,0.26
		c0.61,0,1.14-0.13,1.14-0.48c0-0.26-0.31-0.31-0.7-0.31c-0.57,0-1.44-0.04-2.7-0.44c-1.31-0.39-1.74-1.66-2.14-4.41l-3.97-26.97
		C566.96,193.16,566.7,192.72,566.32,192.71"/>
	<linearGradient id="SVGID_7_" gradientUnits="userSpaceOnUse" x1="589.7065" y1="178.046" x2="589.7065" y2="268.2452">
		<stop  offset="0" style="stop-color:#1D76B8"/>
		<stop  offset="1" style="stop-color:#142C51"/>
	</linearGradient>
	<path class="st6" d="M599.42,193.32h-0.01h-0.01c-0.21,0.01-0.47,0.13-0.68,0.17c-0.35,0.09-1.05,0.17-1.88,0.26
		c-0.83,0.04-9.52,0.04-10.91,0.04c-1.22,0-3.97-0.13-6.28-0.13c-0.65,0-0.95,0.08-0.96,0.38v0.01v0.01
		c0.01,0.29,0.27,0.38,0.74,0.38c0.61,0,1.35,0.05,1.7,0.13c1.44,0.3,1.79,1,1.88,2.49c0.09,1.4,0.09,2.62,0.09,9.25v7.68
		c0,4.02,0,7.46-0.22,9.3c-0.17,1.27-0.39,2.22-1.26,2.4c-0.39,0.09-0.92,0.17-1.58,0.17c-0.52,0-0.7,0.13-0.7,0.35
		c0,0.31,0.3,0.44,0.87,0.44c1.75,0,4.49-0.13,5.5-0.13c2.58,0,5.5,0.26,12.09,0.26c1.66,0,2.05,0,2.36-1.14
		c0.22-0.87,0.57-3.84,0.57-4.84c0-0.44,0-0.79-0.35-0.79c-0.31,0-0.39,0.18-0.48,0.65c-0.31,1.79-0.83,2.71-1.96,3.23
		c-1.14,0.52-2.97,0.52-4.1,0.52c-4.45,0-5.15-0.65-5.24-3.67c-0.04-1.26,0-5.28,0-6.76v-3.45c0-0.26,0.04-0.44,0.26-0.44
		c1.05,0,5.37,0.04,6.2,0.13c1.61,0.17,2.22,0.83,2.45,1.7c0.13,0.57,0.13,1.13,0.17,1.57c0,0.22,0.09,0.39,0.39,0.39
		c0.39,0,0.39-0.48,0.39-0.83c0-0.3,0.09-2.05,0.17-2.92c0.13-2.23,0.35-2.92,0.35-3.19c0-0.26-0.13-0.35-0.31-0.35
		c-0.22,0-0.39,0.22-0.7,0.57c-0.39,0.44-1.05,0.57-2.1,0.65c-1,0.09-6.02,0.09-6.98,0.09c-0.26,0-0.3-0.17-0.3-0.48v-11.04
		c0-0.3,0.09-0.44,0.3-0.44c0.87,0,5.46,0.09,6.2,0.17c2.18,0.26,2.62,0.79,2.92,1.57c0.22,0.52,0.26,1.27,0.26,1.57
		c0,0.39,0.09,0.61,0.39,0.61c0.31,0,0.39-0.26,0.44-0.48c0.09-0.52,0.18-2.44,0.22-2.88c0.13-2.01,0.35-2.53,0.35-2.84
		C599.68,193.49,599.64,193.32,599.42,193.32"/>
	<linearGradient id="SVGID_8_" gradientUnits="userSpaceOnUse" x1="623.6752" y1="178.046" x2="623.6752" y2="268.2452">
		<stop  offset="0" style="stop-color:#1D76B8"/>
		<stop  offset="1" style="stop-color:#142C51"/>
	</linearGradient>
	<path class="st7" d="M615.69,211.13L615.69,211.13c0,4.63,0.04,7.99,0.09,8.82c0.05,1.09,0.13,2.84,0.48,3.32
		c0.57,0.83,2.27,1.75,5.72,1.75c4.45,0,7.42-0.87,10.04-3.14c2.79-2.4,3.67-6.37,3.67-10.87c0-5.54-2.31-9.12-4.19-10.91
		c-4.02-3.84-8.99-4.36-12.39-4.36c-0.87,0-2.49,0.13-2.84,0.3c-0.39,0.18-0.52,0.39-0.52,0.87c-0.04,1.49-0.04,5.28-0.04,8.73
		V211.13z M622,227.06h0.15c8.08,0,12.61-3.1,14.62-5.15c2.44-2.49,4.76-6.68,4.76-12.18c0-5.2-2.05-8.82-4.23-11.09
		c-4.76-4.98-12.05-4.98-17.5-4.98c-2.62,0-5.37,0.13-6.72,0.13c-1.22,0-3.97-0.13-6.28-0.13c-0.65,0-0.95,0.08-0.96,0.38v0.01v0.01
		c0.01,0.29,0.27,0.38,0.74,0.38c0.61,0,1.35,0.05,1.7,0.13c1.44,0.3,1.79,1,1.88,2.49c0.09,1.4,0.09,2.62,0.09,9.25v7.68
		c0,4.02,0,7.46-0.22,9.3c-0.17,1.27-0.39,2.22-1.27,2.4c-0.39,0.09-0.92,0.17-1.57,0.17c-0.52,0-0.7,0.13-0.7,0.35
		c0,0.31,0.31,0.44,0.87,0.44c1.75,0,4.5-0.13,5.5-0.13C615,226.53,618.84,227.04,622,227.06z"/>
	<linearGradient id="SVGID_9_" gradientUnits="userSpaceOnUse" x1="653.4081" y1="178.046" x2="653.4081" y2="268.2452">
		<stop  offset="0" style="stop-color:#1D76B8"/>
		<stop  offset="1" style="stop-color:#142C51"/>
	</linearGradient>
	<path class="st8" d="M658.46,193.67h-0.03h-0.03h-0.08h-0.08c-1.66,0.01-4.11,0.13-5.17,0.13c-1.23,0-3.85-0.12-5.51-0.13h-0.08
		h-0.08h-0.03h-0.03c-0.64,0.01-0.97,0.09-0.98,0.34v0.01v0.02c0.01,0.33,0.27,0.42,0.7,0.42c0.52,0,1.09,0.05,1.57,0.18
		c0.96,0.22,1.4,0.96,1.48,2.44c0.09,1.4,0.09,2.62,0.09,9.25v7.68c0,4.23,0,7.68-0.22,9.51c-0.13,1.26-0.39,2.01-1.27,2.18
		c-0.39,0.09-0.92,0.17-1.57,0.17c-0.53,0-0.7,0.13-0.7,0.35c0,0.31,0.3,0.44,0.87,0.44c1.75,0,4.5-0.13,5.5-0.13
		c1.18,0,3.93,0.13,6.81,0.13c0.48,0,0.83-0.13,0.83-0.44c0-0.22-0.22-0.35-0.7-0.35c-0.66,0-1.62-0.09-2.23-0.17
		c-1.31-0.18-1.61-0.96-1.74-2.14c-0.17-1.88-0.17-5.32-0.17-9.56v-7.68c0-6.63,0-7.85,0.09-9.25c0.09-1.53,0.44-2.27,1.61-2.49
		c0.53-0.09,0.87-0.13,1.31-0.13c0.44,0,0.7-0.09,0.7-0.43C659.32,193.76,658.99,193.67,658.46,193.67"/>
	<linearGradient id="SVGID_10_" gradientUnits="userSpaceOnUse" x1="679.4606" y1="178.046" x2="679.4606" y2="268.2452">
		<stop  offset="0" style="stop-color:#1D76B8"/>
		<stop  offset="1" style="stop-color:#142C51"/>
	</linearGradient>
	<path class="st9" d="M684.68,227.28h0.13c2.77-0.01,6.01-0.32,7.73-1c0.74-0.31,0.92-0.53,1.13-1.27c0.44-1.48,0.96-5.28,0.96-5.8
		c0-0.35-0.09-0.65-0.39-0.65c-0.35,0-0.44,0.17-0.57,0.87c-0.17,0.79-0.74,2.05-1.48,2.88c-1.74,2.01-4.1,2.44-7.99,2.44
		c-5.85,0-13.75-5.15-13.75-15.54c0-4.23,0.83-8.38,4.02-11.3c1.92-1.75,4.41-2.71,8.2-2.71c4.02,0,7.42,1.18,8.86,2.71
		c1.09,1.13,1.66,2.66,1.71,4.01c0,0.61,0.08,0.96,0.43,0.96c0.39,0,0.48-0.35,0.53-1.01c0.09-0.87,0.04-3.27,0.13-4.71
		c0.09-1.53,0.22-2.05,0.22-2.4c0-0.26-0.17-0.48-0.66-0.53c-1.31-0.13-2.7-0.52-4.36-0.74c-2.01-0.26-3.62-0.44-6.33-0.44
		c-6.5,0-10.65,1.75-13.79,4.63c-4.12,3.78-5.08,8.83-5.11,11.82v0.34c0.04,4.19,1.2,8.98,5.41,12.68
		C673.68,225.97,678.7,227.28,684.68,227.28"/>
	<linearGradient id="SVGID_11_" gradientUnits="userSpaceOnUse" x1="364.0588" y1="236.0234" x2="364.0588" y2="281.5846">
		<stop  offset="0" style="stop-color:#1D76B8"/>
		<stop  offset="1" style="stop-color:#142C51"/>
	</linearGradient>
	<path class="st10" d="M366.07,245.42h-0.13c-6.07,0-10.08,3.45-10.08,8.25c0,3.54,1.66,6.59,6.46,10.34l2.01,1.57
		c3.62,2.79,4.28,4.84,4.28,6.98c0,2.31-1.92,4.97-5.85,4.97c-2.71,0-5.28-1.18-6.24-4.41c-0.22-0.74-0.39-1.66-0.39-2.23
		c0-0.35-0.04-0.74-0.44-0.74c-0.35,0-0.48,0.48-0.52,1.13c-0.04,0.66-0.2,3.07-0.22,5.38v0.11v0.36c0.01,0.85,0.16,1.06,0.83,1.35
		c1.88,0.83,3.84,1.13,6.37,1.13c2.31,0,4.76-0.39,6.94-1.79c3.14-2.05,4.1-5.06,4.1-7.59c0-4.15-1.92-7.07-7.16-11.13l-1.22-0.92
		c-3.62-2.75-4.63-4.28-4.63-6.29c0-2.62,1.96-4.49,5.19-4.49c2.84,0,4.1,1.31,4.76,2.14c0.92,1.13,1.14,2.49,1.14,2.88
		c0,0.52,0.13,0.78,0.44,0.78c0.35,0,0.48-0.35,0.48-1.31c0-3.4,0.17-4.67,0.17-5.24c0-0.31-0.22-0.44-0.61-0.52
		C370.62,245.86,368.83,245.43,366.07,245.42"/>
	<linearGradient id="SVGID_12_" gradientUnits="userSpaceOnUse" x1="619.4683" y1="236.0234" x2="619.4683" y2="281.5846">
		<stop  offset="0" style="stop-color:#1D76B8"/>
		<stop  offset="1" style="stop-color:#142C51"/>
	</linearGradient>
	<path class="st11" d="M621.48,245.42h-0.13c-6.07,0-10.08,3.45-10.08,8.25c0,3.54,1.66,6.59,6.46,10.34l2.01,1.57
		c3.62,2.79,4.28,4.84,4.28,6.98c0,2.31-1.92,4.97-5.85,4.97c-2.71,0-5.28-1.18-6.24-4.41c-0.22-0.74-0.39-1.66-0.39-2.23
		c0-0.35-0.04-0.74-0.44-0.74c-0.35,0-0.48,0.48-0.52,1.13c-0.04,0.66-0.2,3.07-0.22,5.38v0.11v0.36c0.01,0.85,0.16,1.06,0.83,1.35
		c1.88,0.83,3.84,1.13,6.37,1.13c2.31,0,4.76-0.39,6.94-1.79c3.14-2.05,4.1-5.06,4.1-7.59c0-4.15-1.92-7.07-7.16-11.13l-1.22-0.92
		c-3.62-2.75-4.63-4.28-4.63-6.29c0-2.62,1.96-4.49,5.19-4.49c2.84,0,4.1,1.31,4.76,2.14c0.92,1.13,1.13,2.49,1.13,2.88
		c0,0.52,0.13,0.78,0.44,0.78c0.35,0,0.48-0.35,0.48-1.31c0-3.4,0.17-4.67,0.17-5.24c0-0.31-0.22-0.44-0.61-0.52
		C626.03,245.86,624.24,245.43,621.48,245.42"/>
	<linearGradient id="SVGID_13_" gradientUnits="userSpaceOnUse" x1="396.1962" y1="236.0234" x2="396.1962" y2="281.5846">
		<stop  offset="0" style="stop-color:#1D76B8"/>
		<stop  offset="1" style="stop-color:#142C51"/>
	</linearGradient>
	<path class="st12" d="M407.91,263.36L407.91,263.36c0-9.78-5.63-15.84-12.79-15.84c-5.02,0-10.74,2.79-10.74,13.66
		c0,9.08,5.02,16.28,13.4,16.28C400.85,277.45,407.91,275.97,407.91,263.36z M378.37,262.44v0.18c0.04,7.71,5.11,17.02,17.59,17.02
		c11.08,0,18.07-7.9,18.07-17.89c0-10-6.76-16.32-17.63-16.32C383.35,245.42,378.41,254.99,378.37,262.44z"/>
	<linearGradient id="SVGID_14_" gradientUnits="userSpaceOnUse" x1="429.9875" y1="236.0234" x2="429.9875" y2="281.5846">
		<stop  offset="0" style="stop-color:#1D76B8"/>
		<stop  offset="1" style="stop-color:#142C51"/>
	</linearGradient>
	<path class="st13" d="M437.73,279.15h0.29h0.1c2.17-0.01,2.39-0.23,2.64-1.18c0.35-1.27,0.66-4.54,0.66-5.02
		c0-0.52-0.04-0.74-0.35-0.74c-0.35,0-0.44,0.26-0.48,0.65c-0.09,0.83-0.61,2.05-1.14,2.62c-1.09,1.18-2.79,1.22-5.11,1.22
		c-3.41,0-4.54-0.31-5.28-0.96c-0.92-0.79-0.92-3.8-0.92-9.38v-7.68c0-6.63,0-7.86,0.09-9.25c0.09-1.53,0.44-2.27,1.62-2.49
		c0.52-0.08,1.22-0.13,1.7-0.13c0.52,0,0.79-0.09,0.79-0.39c0-0.31-0.3-0.39-0.92-0.39c-1.7,0-4.89,0.13-5.93,0.13
		c-1.18,0-3.93-0.13-5.98-0.13c-0.64,0-0.95,0.08-0.96,0.38v0.01v0.01c0.01,0.29,0.27,0.38,0.74,0.38c0.57,0,1.09,0.04,1.44,0.13
		c1.44,0.31,1.79,1.01,1.88,2.49c0.09,1.4,0.09,2.62,0.09,9.25v7.68c0,4.02,0,7.46-0.22,9.3c-0.17,1.26-0.39,2.22-1.27,2.4
		c-0.39,0.09-0.92,0.17-1.57,0.17c-0.52,0-0.7,0.13-0.7,0.35c0,0.31,0.31,0.44,0.87,0.44c1.75,0,4.5-0.13,5.5-0.13
		C428.8,278.89,431.64,279.15,437.73,279.15"/>
	<linearGradient id="SVGID_15_" gradientUnits="userSpaceOnUse" x1="458.9829" y1="236.0234" x2="458.9829" y2="281.5846">
		<stop  offset="0" style="stop-color:#1D76B8"/>
		<stop  offset="1" style="stop-color:#142C51"/>
	</linearGradient>
	<path class="st14" d="M475.6,246.03h-0.03h-0.03h-0.08h-0.08c-1.71,0.01-4.31,0.13-4.81,0.13c-0.04,0-2.62-0.12-4.81-0.13h-0.11
		h-0.1h-0.03h-0.03c-0.57,0.01-0.86,0.1-0.86,0.39c0,0.31,0.26,0.39,0.74,0.39c0.48,0,1.22,0.04,1.57,0.13
		c1.44,0.31,1.79,1.01,1.88,2.49c0.09,1.4,0.09,2.62,0.09,9.25v5.46c0,4.5-0.13,8.42-2.53,10.82c-1.75,1.75-4.1,2.36-6.02,2.36
		c-1.48,0-3.49-0.17-5.46-1.79c-2.14-1.74-3.4-4.41-3.4-10.74v-6.11c0-6.63,0-7.86,0.09-9.25c0.09-1.53,0.44-2.27,1.61-2.49
		c0.52-0.08,0.78-0.13,1.26-0.13c0.44,0,0.7-0.09,0.7-0.39c0-0.3-0.29-0.39-0.9-0.39h-0.03h-0.03h-0.07h-0.08
		c-1.59,0.01-4.2,0.13-5.22,0.13c-1.27,0-3.89-0.12-6.15-0.13h-0.11h-0.11h-0.03h-0.03c-0.6,0.01-0.89,0.09-0.9,0.38v0.01v0.01
		c0.01,0.29,0.27,0.38,0.74,0.38c0.61,0,1.35,0.04,1.7,0.13c1.44,0.31,1.79,1.01,1.88,2.49c0.09,1.4,0.09,2.62,0.09,9.25v6.37
		c0,6.33,1.66,9.56,3.88,11.57c3.19,2.88,7.38,3.01,9.69,3.01c2.84,0,5.98-0.48,9.08-3.14c3.67-3.14,4.15-8.29,4.15-13.14v-4.67
		c0-6.63,0-7.86,0.09-9.25c0.09-1.53,0.44-2.27,1.62-2.49c0.52-0.08,0.79-0.13,1.27-0.13c0.52,0,0.78-0.09,0.78-0.39
		C476.46,246.12,476.18,246.03,475.6,246.03"/>
	<linearGradient id="SVGID_16_" gradientUnits="userSpaceOnUse" x1="492.7317" y1="236.0234" x2="492.7317" y2="281.5846">
		<stop  offset="0" style="stop-color:#1D76B8"/>
		<stop  offset="1" style="stop-color:#142C51"/>
	</linearGradient>
	<path class="st15" d="M479.44,245.42h-0.02h-0.01c-0.25,0.01-0.38,0.27-0.51,0.83c-0.08,0.34-0.89,4.2-0.92,4.98v0.1v0.02
		c0.01,0.42,0.11,0.61,0.39,0.61c0.26,0,0.39-0.18,0.48-0.53c0.09-0.35,0.31-0.87,0.74-1.53c0.65-0.96,1.7-1.18,4.23-1.26l6.5-0.18
		v17.89c0,4.02,0,7.46-0.22,9.3c-0.13,1.26-0.39,2.22-1.26,2.4c-0.39,0.09-0.92,0.17-1.58,0.17c-0.52,0-0.7,0.13-0.7,0.35
		c0,0.31,0.31,0.44,0.87,0.44c1.75,0,4.49-0.13,5.5-0.13c1.22,0,3.97,0.13,6.85,0.13c0.48,0,0.83-0.13,0.83-0.44
		c0-0.22-0.22-0.35-0.7-0.35c-0.66,0-1.62-0.09-2.22-0.17c-1.31-0.18-1.57-1.14-1.7-2.36c-0.22-1.88-0.22-5.33-0.22-9.34v-17.89
		l5.5,0.13c3.89,0.09,5.06,1.31,5.15,2.44l0.04,0.48c0.04,0.66,0.13,0.87,0.48,0.87c0.26,0,0.35-0.26,0.39-0.7
		c0-1.13,0.13-4.15,0.13-5.06c0-0.65-0.05-0.92-0.35-0.92c-0.17,0-0.52,0.09-1.18,0.22c-0.65,0.09-1.61,0.22-3.01,0.22h-17.28
		c-1.44,0-3.1-0.09-4.36-0.22C480.22,245.86,479.78,245.43,479.44,245.42"/>
	<linearGradient id="SVGID_17_" gradientUnits="userSpaceOnUse" x1="518.2764" y1="236.0234" x2="518.2764" y2="281.5846">
		<stop  offset="0" style="stop-color:#1D76B8"/>
		<stop  offset="1" style="stop-color:#142C51"/>
	</linearGradient>
	<path class="st16" d="M523.33,246.03h-0.03h-0.03h-0.08h-0.08c-1.66,0.01-4.11,0.13-5.17,0.13c-1.23,0-3.84-0.12-5.51-0.13h-0.08
		h-0.08h-0.03h-0.03c-0.63,0.01-0.96,0.09-0.98,0.33v0.06c0.02,0.32,0.28,0.4,0.7,0.4c0.52,0,1.09,0.04,1.57,0.17
		c0.96,0.22,1.4,0.96,1.48,2.44c0.09,1.4,0.09,2.62,0.09,9.25v7.68c0,4.23,0,7.68-0.22,9.51c-0.13,1.27-0.39,2.01-1.27,2.18
		c-0.39,0.09-0.92,0.17-1.57,0.17c-0.52,0-0.7,0.13-0.7,0.35c0,0.31,0.31,0.44,0.87,0.44c1.75,0,4.5-0.13,5.5-0.13
		c1.18,0,3.93,0.13,6.81,0.13c0.48,0,0.83-0.13,0.83-0.44c0-0.22-0.22-0.35-0.7-0.35c-0.66,0-1.62-0.09-2.23-0.17
		c-1.31-0.18-1.62-0.96-1.75-2.14c-0.17-1.88-0.17-5.32-0.17-9.56v-7.68c0-6.63,0-7.86,0.09-9.25c0.09-1.53,0.44-2.27,1.61-2.49
		c0.52-0.08,0.87-0.13,1.31-0.13c0.44,0,0.7-0.09,0.7-0.44C524.19,246.12,523.86,246.03,523.33,246.03"/>
	<linearGradient id="SVGID_18_" gradientUnits="userSpaceOnUse" x1="546.9904" y1="236.0234" x2="546.9904" y2="281.5846">
		<stop  offset="0" style="stop-color:#1D76B8"/>
		<stop  offset="1" style="stop-color:#142C51"/>
	</linearGradient>
	<path class="st17" d="M558.71,263.36L558.71,263.36c0-9.78-5.63-15.84-12.79-15.84c-5.02,0-10.74,2.79-10.74,13.66
		c0,9.08,5.02,16.28,13.4,16.28C551.64,277.45,558.71,275.97,558.71,263.36z M529.16,262.44v0.18c0.04,7.71,5.11,17.02,17.59,17.02
		c11.09,0,18.07-7.9,18.07-17.89c0-10-6.77-16.32-17.63-16.32C534.15,245.42,529.2,254.99,529.16,262.44z"/>
	<linearGradient id="SVGID_19_" gradientUnits="userSpaceOnUse" x1="586.9587" y1="236.0234" x2="586.9587" y2="281.5846">
		<stop  offset="0" style="stop-color:#1D76B8"/>
		<stop  offset="1" style="stop-color:#142C51"/>
	</linearGradient>
	<path class="st18" d="M600.53,279.55h0.02h0.02c0.38-0.01,0.55-0.41,0.55-1.35l0.48-27.54c0.04-2.44,0.39-3.36,1.62-3.71
		c0.52-0.13,0.87-0.13,1.31-0.13c0.52,0,0.78-0.13,0.78-0.39c0-0.35-0.44-0.39-1-0.39c-2.14,0-3.8,0.13-4.28,0.13
		c-0.92,0-3.01-0.13-5.28-0.13c-0.66,0-1.14,0.04-1.14,0.39c0,0.26,0.17,0.39,0.7,0.39c0.61,0,1.66,0,2.31,0.26
		c1.05,0.44,1.44,1.27,1.48,3.93l0.44,19.6h-0.22c-0.74-0.7-6.64-6.98-9.6-9.95c-6.37-6.33-13.01-13.44-13.53-14.01
		c-0.74-0.79-1.14-1.35-1.61-1.35c-0.44,0-0.57,0.61-0.57,1.48l-0.39,25.84c-0.05,3.8-0.22,5.06-1.35,5.41
		c-0.61,0.17-1.4,0.22-1.97,0.22c-0.43,0-0.69,0.08-0.7,0.34v0.01v0.02c0.01,0.38,0.4,0.42,0.96,0.42c2.27,0,4.32-0.13,4.71-0.13
		c0.83,0,2.57,0.13,5.41,0.13c0.61,0,1-0.09,1-0.44c0-0.26-0.26-0.35-0.74-0.35c-0.7,0-1.53-0.04-2.27-0.31
		c-0.87-0.31-1.44-1.44-1.53-4.84l-0.48-18.33h0.13c0.79,0.83,5.63,6.29,10.39,11c4.54,4.5,10.12,10.21,12.87,12.83
		C599.54,279.06,600.06,279.53,600.53,279.55"/>
	<path class="st19" d="M650.17,267.29c-0.02-1.36-0.1-3.87-2.99-3.87c-1.31,0-2.54,0.79-2.54,2.39c0,1.12,0.29,1.7,2.37,3.73
		c2.2,2.2,2.7,3.13,2.7,4.71c0,2.25-1.67,4.74-4.85,4.74c-1.65,0-2.87-0.86-3.68-0.86c-0.67,0-0.84,0.48-0.93,0.79h-0.43l0.81-5.33
		l0.48,0.05c-0.03,0.19-0.05,0.31-0.05,0.5c0,2.13,1.34,4.02,3.49,4.02c2.25,0,3.08-1.96,3.08-3.16c0-1.53-0.88-2.27-1.67-3.11
		c-3.3-3.52-3.42-3.78-3.42-5.33c0-2.32,1.89-3.92,4.11-3.92c1.08,0,1.65,0.14,2.08,0.29c0.45,0.17,0.74,0.31,1.22,0.31
		c0.55,0,0.76-0.19,1.05-0.62h0.55l-0.96,4.76L650.17,267.29z"/>
	<path class="st19" d="M658.62,269.04L658.62,269.04c-1.13,0-2.51,1.1-3.13,2.73c-0.6,1.53-1.55,4.78-1.55,5.72
		c0,0.62,0.6,0.88,1.19,0.88c2.92,0,5.07-4.45,5.07-7.3C660.2,270.43,660.17,269.04,658.62,269.04 M652.42,268.54l3.71-0.53
		c0.07,0,0.17,0.05,0.07,0.31l-0.65,2.22l0.05,0.05c0.57-0.84,1.94-2.58,3.9-2.58c2.13,0,2.85,1.41,2.85,3.13
		c0,3.71-3.83,7.68-7.13,7.68c-0.6,0-1.07-0.12-1.63-0.41c-0.22,0.81-0.88,3.44-0.88,3.92c0,0.77,0.91,0.77,1.53,0.77v0.36h-4.91
		v-0.38c1.27,0,1.41-0.64,1.6-1.41c0.64-2.68,3.09-11.58,3.09-12.08c0-0.43-0.46-0.72-1.01-0.69l-0.55,0.02L652.42,268.54z"/>
	<path class="st19" d="M666.08,273.58L666.08,273.58c4.93-1,5.05-3.88,5.05-4.07c0-0.5-0.24-0.96-0.84-0.96
		c-1.29,0-2.92,1.84-3.81,3.97L666.08,273.58z M671.71,276.24c-0.26,0.38-2.44,2.58-4.83,2.58c-2.51,0-3.28-1.87-3.28-3.37
		c0-3.42,3.78-7.44,7.15-7.44c1.22,0,1.96,0.57,1.96,1.63c0,1.89-2.25,3.83-6.12,4.38l-0.67,0.1c-0.12,0.5-0.24,0.98-0.24,1.46
		c0,1.63,1.24,2.18,2.25,2.18c1.29,0,2.3-0.81,3.49-1.79L671.71,276.24z"/>
	<path class="st19" d="M676.47,273.58L676.47,273.58c4.93-1,5.05-3.88,5.05-4.07c0-0.5-0.24-0.96-0.84-0.96
		c-1.29,0-2.92,1.84-3.8,3.97L676.47,273.58z M682.09,276.24c-0.26,0.38-2.44,2.58-4.83,2.58c-2.51,0-3.28-1.87-3.28-3.37
		c0-3.42,3.78-7.44,7.15-7.44c1.22,0,1.96,0.57,1.96,1.63c0,1.89-2.25,3.83-6.12,4.38l-0.67,0.1c-0.12,0.5-0.24,0.98-0.24,1.46
		c0,1.63,1.25,2.18,2.25,2.18c1.29,0,2.3-0.81,3.49-1.79L682.09,276.24z"/>
	<path class="st19" d="M692.14,270.16L692.14,270.16c0-0.55,0-1.6-1.13-1.6c-2.68,0-4.95,5.17-4.95,7.35c0,0.41,0,1.77,1.46,1.77
		C689.79,277.67,692.14,273.13,692.14,270.16 M694.98,276.14c-1.03,1.6-2.58,2.73-3.37,2.73c-0.93,0-1.13-0.6-1.13-1.1
		c0-0.55,0.1-1.1,0.29-1.94l-0.05-0.05c-1.72,2.63-3.06,3.04-4.26,3.04c-1.98,0-2.49-1.58-2.49-2.82c0-3.61,4.06-7.99,6.91-7.99
		c1.34,0,1.51,0.79,1.6,1.31l0.05-0.05l1.03-3.8c0.19-0.67,0.36-1.27,0.36-1.6c0-0.55-0.17-0.67-1.49-0.69v-0.41
		c1.22-0.12,2.44-0.29,3.66-0.55l0.12,0.12c-1.03,4.16-3.92,14.35-3.92,14.74c0,0.36,0.19,0.53,0.43,0.53c0.48,0,0.96-0.55,1.96-1.7
		L694.98,276.14z"/>
	<path class="st19" d="M703.74,276.09L703.74,276.09c0,1.36,0.72,2.23,1.91,2.23c2.73,0,4.62-4.95,4.62-7.51
		c0-1.24-0.53-2.3-1.68-2.3C705.92,268.51,703.74,273.27,703.74,276.09 M712.28,271.55c0,2.94-3.27,7.27-6.94,7.27
		c-2.53,0-3.61-1.46-3.61-3.44c0-3.52,3.54-7.37,7.03-7.37C711.54,268.01,712.28,269.97,712.28,271.55z"/>
	<path class="st19" d="M713.82,268.32h2.2c0.62-2.03,1.82-5.98,4.83-5.98c1.72,0,2.1,1.08,2.1,1.55c0,0.48-0.43,0.96-0.98,0.96
		c-0.77,0-0.91-0.65-0.91-0.91c0-0.53,0.24-0.53,0.24-0.79c0-0.19-0.24-0.29-0.55-0.29c-1.96,0-2.68,4.24-2.9,5.46h2.59l-0.14,0.77
		h-2.61l-1.72,7.65c-0.67,2.92-2.01,6.77-4.81,6.77c-0.74,0-1.72-0.31-1.86-1.41c0-0.07,0-0.98,0.86-1.03
		c0.34-0.02,0.96,0.29,0.96,0.88c0,0.41-0.22,0.41-0.22,0.67c0,0.19,0.17,0.38,0.46,0.38c1.53,0,2.15-2.92,2.34-3.87l2.11-10.05
		h-2.15L713.82,268.32z"/>
	<path class="st19" d="M730.73,275.83c-1.22,1.84-2.15,2.99-3.64,2.99c-1.05,0-1.15-0.81-1.15-1.48c0-0.5,3.47-12.99,3.47-13.49
		c0-0.62-1.01-0.62-1.63-0.6v-0.38c1.25-0.14,2.49-0.36,3.73-0.64l0.12,0.12l-3.61,13.85c-0.05,0.21-0.24,0.86-0.24,1.12
		c0,0.14,0,0.48,0.36,0.48c0.6,0,1.1-0.67,2.27-2.18L730.73,275.83z"/>
	<path class="st19" d="M736.52,265.45L736.52,265.45c-0.6,0-1.15-0.41-1.15-1.24c0-0.84,0.55-1.29,1.12-1.29
		c0.79,0,1.2,0.79,1.2,1.31C737.69,264.71,737.31,265.45,736.52,265.45 M737,276.09c-0.93,1.41-1.99,2.73-3.33,2.73
		c-1.13,0-1.13-1.05-1.13-1.48c0-1.12,1.89-7.06,1.89-7.73c0-0.5-0.19-0.62-1.51-0.62v-0.38c0.91-0.05,2.89-0.43,3.83-0.6l0.07,0.05
		l-2.1,7.7c-0.1,0.33-0.38,1.29-0.38,1.58c0,0.17,0.17,0.36,0.38,0.36c0.29,0,0.98-0.48,1.96-1.87L737,276.09z"/>
	<path class="st19" d="M744.85,268.54L744.85,268.54c-1.84,0-2.89,2.44-2.89,4.04c0,1.08,0.4,1.87,1.48,1.87
		c1.58,0,2.77-2.3,2.77-4.28C746.21,269.23,745.85,268.54,744.85,268.54 M744.25,278.99L744.25,278.99c-0.43-0.22-2.75-1.1-2.94-1.1
		c-0.14,0-0.96,0.65-1.03,0.72c-0.98,0.84-0.98,1.48-0.98,2.03c0,2.22,2.58,2.32,2.94,2.32c2.15,0,3.33-1.08,3.33-2.27
		C745.57,279.61,744.7,279.2,744.25,278.99z M749.08,269.8h-1.2c0.14,0.46,0.22,0.93,0.22,1.41c0,1.77-2.27,3.73-4.38,3.73
		c-0.31,0-0.65-0.09-0.96-0.09c-0.33,0-0.86,0.64-0.86,0.96c0,1.27,5.09,0.89,5.09,4.19c0,2.03-1.87,3.49-5.14,3.49
		c-2.61,0-3.87-1.34-3.87-2.66c0-1.36,0.79-1.89,2.8-3.21c-0.29-0.21-0.65-0.5-0.65-0.96c0-0.74,1.03-1.44,1.84-1.99
		c-0.86-0.38-1.89-0.96-1.89-2.61c0-2.68,2.77-4.07,4.74-4.07c0.98,0,1.58,0.22,2.01,0.43c0.41,0.22,0.62,0.43,0.79,0.43h1.46V269.8
		z"/>
	<path class="st19" d="M760.95,276.05c-0.86,1.24-1.89,2.73-3.47,2.73c-0.76,0-1.08-0.45-1.08-1.1c0-0.62,1.96-7.49,1.96-7.8
		c0-0.41-0.31-0.65-0.69-0.65c-1.19,0-3.2,2.7-3.68,3.37c-1.08,1.63-1.44,2.94-2.22,5.96h-1.8l3.16-11.98
		c0.26-1.01,0.64-2.37,0.64-2.73c0-0.29-0.19-0.6-0.98-0.62l-0.62,0.02v-0.38c1.24-0.14,2.51-0.36,3.76-0.64l0.12,0.12l-2.82,10.5
		l0.05,0.05c0.74-1.2,3.18-4.88,5.33-4.88c0.53,0,1.63,0.17,1.63,1.72c0,0.84-1.94,6.96-1.94,7.47c0,0.29,0.19,0.45,0.38,0.45
		c0.48,0,1.05-0.74,1.96-1.89L760.95,276.05z"/>
	<path class="st19" d="M768.2,269.09h-2.01l-2.11,7.97c-0.02,0.07-0.02,0.12-0.02,0.19c0,0.22,0.12,0.41,0.38,0.41
		c0.48,0,1.32-1.13,1.91-1.89l0.31,0.17c-1.22,1.84-2.15,2.89-3.4,2.89c-0.48,0-1.15-0.24-1.15-0.96c0-0.36,0.45-1.82,0.55-2.2
		l1.72-6.58h-1.77c-0.02-0.15-0.02-0.26,0.05-0.38c0.14-0.22,0.81-0.38,1.22-0.6c0.79-0.41,1.94-1.48,2.6-2.32
		c0.1-0.12,0.19-0.33,0.41-0.29c0.16-0.05,0.21,0.17,0.16,0.36l-0.67,2.47h1.92L768.2,269.09z"/>
	<linearGradient id="SVGID_20_" gradientUnits="userSpaceOnUse" x1="358.3463" y1="292.9655" x2="358.3463" y2="356.5349">
		<stop  offset="0" style="stop-color:#E82429"/>
		<stop  offset="1" style="stop-color:#4E1615"/>
	</linearGradient>
	<path class="st20" d="M359.1,295.66h-0.05c-2.27,0-3.77,1.29-3.77,3.08c0,1.32,0.62,2.46,2.41,3.87l0.75,0.59
		c1.35,1.05,1.6,1.81,1.6,2.61c0,0.86-0.72,1.86-2.19,1.86c-1.01,0-1.97-0.44-2.33-1.65c-0.08-0.28-0.15-0.62-0.15-0.83
		c0-0.13-0.02-0.28-0.16-0.28c-0.13,0-0.18,0.18-0.2,0.42c-0.02,0.25-0.08,1.15-0.08,2.01v0.04v0.04v0.04v0.02v0.02v0.02
		c0.01,0.32,0.06,0.4,0.31,0.51c0.7,0.31,1.43,0.42,2.38,0.42c0.86,0,1.78-0.15,2.59-0.67c1.17-0.77,1.53-1.89,1.53-2.84
		c0-1.55-0.72-2.64-2.68-4.16l-0.46-0.34c-1.35-1.03-1.73-1.6-1.73-2.35c0-0.98,0.73-1.68,1.94-1.68c1.06,0,1.53,0.49,1.78,0.8
		c0.34,0.42,0.42,0.93,0.42,1.08c0,0.2,0.05,0.29,0.16,0.29c0.13,0,0.18-0.13,0.18-0.49c0-1.27,0.07-1.74,0.07-1.96
		c0-0.11-0.08-0.16-0.23-0.2C360.8,295.82,360.13,295.66,359.1,295.66"/>
	<linearGradient id="SVGID_21_" gradientUnits="userSpaceOnUse" x1="370.4928" y1="292.9655" x2="370.4928" y2="356.5349">
		<stop  offset="0" style="stop-color:#E82429"/>
		<stop  offset="1" style="stop-color:#4E1615"/>
	</linearGradient>
	<path class="st21" d="M367.51,302.41L367.51,302.41c0,1.73,0.02,2.99,0.03,3.3c0.02,0.41,0.05,1.06,0.18,1.24
		c0.21,0.31,0.85,0.65,2.14,0.65c1.66,0,2.77-0.33,3.75-1.17c1.04-0.9,1.37-2.38,1.37-4.06c0-2.07-0.86-3.41-1.56-4.08
		c-1.5-1.43-3.36-1.63-4.63-1.63c-0.32,0-0.93,0.05-1.06,0.11c-0.15,0.06-0.2,0.14-0.2,0.32c-0.02,0.56-0.02,1.97-0.02,3.26V302.41z
		 M369.33,295.89h-0.1h-0.1h-0.1h-0.05h-0.05h-0.05c-0.94,0-1.89,0.05-2.37,0.05c-0.44,0-1.39-0.04-2.22-0.05h-0.04h-0.04h-0.04
		h-0.02h-0.02c-0.2,0-0.31,0.04-0.31,0.13v0.04c0.01,0.1,0.11,0.13,0.28,0.13c0.23,0,0.5,0.02,0.64,0.05
		c0.54,0.12,0.67,0.38,0.7,0.93c0.03,0.52,0.03,0.98,0.03,3.46v2.87c0,1.5,0,2.79-0.08,3.47c-0.06,0.47-0.15,0.83-0.47,0.9
		c-0.15,0.03-0.34,0.07-0.59,0.07c-0.2,0-0.26,0.05-0.26,0.13c0,0.11,0.12,0.16,0.33,0.16c0.65,0,1.68-0.05,2.06-0.05
		c0.81,0,2.28,0.19,3.47,0.19c3.02,0,4.72-1.16,5.46-1.92c0.91-0.93,1.78-2.5,1.78-4.55c0-1.94-0.76-3.3-1.58-4.14
		C373.89,295.97,371.33,295.89,369.33,295.89z"/>
	<linearGradient id="SVGID_22_" gradientUnits="userSpaceOnUse" x1="385.4345" y1="292.9655" x2="385.4345" y2="356.5349">
		<stop  offset="0" style="stop-color:#E82429"/>
		<stop  offset="1" style="stop-color:#4E1615"/>
	</linearGradient>
	<path class="st22" d="M390.51,308.41L390.51,308.41h0.02c0.14,0,0.2-0.15,0.2-0.51l0.18-10.29c0.02-0.91,0.15-1.26,0.6-1.39
		c0.2-0.05,0.33-0.05,0.49-0.05c0.2,0,0.3-0.05,0.3-0.15c0-0.13-0.16-0.15-0.38-0.15c-0.8,0-1.42,0.05-1.6,0.05
		c-0.34,0-1.13-0.05-1.97-0.05c-0.24,0-0.42,0.02-0.42,0.15c0,0.1,0.07,0.15,0.26,0.15c0.23,0,0.62,0,0.86,0.1
		c0.39,0.16,0.54,0.47,0.55,1.47l0.16,7.32h-0.08c-0.28-0.26-2.48-2.61-3.59-3.72c-2.38-2.37-4.86-5.02-5.06-5.24
		c-0.28-0.29-0.42-0.51-0.6-0.51c-0.16,0-0.21,0.23-0.21,0.56l-0.15,9.65c-0.02,1.42-0.08,1.89-0.51,2.02
		c-0.23,0.07-0.52,0.08-0.73,0.08c-0.16,0-0.26,0.03-0.26,0.12v0.01c0,0.15,0.15,0.16,0.36,0.16c0.85,0,1.61-0.05,1.76-0.05
		c0.31,0,0.96,0.05,2.02,0.05c0.23,0,0.37-0.03,0.37-0.16c0-0.1-0.1-0.13-0.28-0.13c-0.26,0-0.57-0.02-0.85-0.11
		c-0.33-0.11-0.54-0.54-0.57-1.81l-0.18-6.85h0.05c0.29,0.31,2.1,2.35,3.88,4.11c1.7,1.68,3.78,3.82,4.81,4.8
		C390.14,308.23,390.33,308.41,390.51,308.41"/>
	<linearGradient id="SVGID_23_" gradientUnits="userSpaceOnUse" x1="403.5125" y1="292.9655" x2="403.5125" y2="356.5349">
		<stop  offset="0" style="stop-color:#E82429"/>
		<stop  offset="1" style="stop-color:#4E1615"/>
	</linearGradient>
	<path class="st23" d="M404.6,302.2L404.6,302.2c-0.34-0.25-0.72-0.36-1.35-0.39c-0.29-0.02-0.46-0.02-0.7-0.02
		c-0.07,0-0.1,0.03-0.1,0.11v3.87c0,1.07,0.05,1.35,0.57,1.56c0.44,0.18,0.82,0.2,1.19,0.2c0.73,0,1.97-0.39,1.97-2.09
		C406.18,304.43,405.84,303.06,404.6,302.2z M402.44,300.89L402.44,300.89c0,0.13,0.05,0.16,0.11,0.18
		c0.15,0.03,0.39,0.05,0.77,0.05c0.54,0,0.9-0.07,1.18-0.31c0.42-0.34,0.67-0.93,0.67-1.73c0-1.09-0.64-2.53-2.04-2.53
		c-0.23,0-0.38,0-0.54,0.03c-0.11,0.03-0.15,0.1-0.15,0.28V300.89z M403.79,308.27h0.02h0.02c3,0,4.36-1.81,4.36-3.56
		c0-1.91-1.63-3.07-2.97-3.52c0.9-0.72,1.66-1.52,1.66-2.85c0-0.86-0.52-2.45-3.48-2.45c-0.55,0-1.19,0.05-1.99,0.05
		c-0.33,0-1.35-0.05-2.22-0.05c-0.23,0-0.35,0.03-0.36,0.13v0.04c0.01,0.1,0.11,0.13,0.28,0.13c0.23,0,0.5,0.02,0.64,0.05
		c0.54,0.12,0.67,0.38,0.7,0.93c0.03,0.52,0.03,0.98,0.03,3.46v2.87c0,1.5,0,2.79-0.08,3.47c-0.06,0.47-0.15,0.83-0.47,0.9
		c-0.15,0.03-0.34,0.07-0.59,0.07c-0.2,0-0.26,0.05-0.26,0.13c0,0.11,0.12,0.16,0.33,0.16c0.65,0,1.68-0.05,2.06-0.05
		C401.94,308.17,403.35,308.26,403.79,308.27z"/>
	<linearGradient id="SVGID_24_" gradientUnits="userSpaceOnUse" x1="417.1818" y1="292.9655" x2="417.1818" y2="356.5349">
		<stop  offset="0" style="stop-color:#E82429"/>
		<stop  offset="1" style="stop-color:#4E1615"/>
	</linearGradient>
	<path class="st24" d="M423.46,295.89h-0.02h-0.02h-0.03h-0.03h-0.03c-0.64,0-1.59,0.05-1.96,0.05c-0.42,0-1.37-0.04-2.22-0.05
		h-0.04h-0.04h-0.04h-0.02h-0.02c-0.2,0-0.3,0.04-0.3,0.15c0,0.11,0.1,0.15,0.28,0.15c0.23,0,0.51,0.02,0.64,0.05
		c0.54,0.12,0.67,0.38,0.7,0.93c0.03,0.52,0.03,0.98,0.03,3.46v0.34c0,0.08-0.05,0.11-0.1,0.11h-6.23c-0.05,0-0.1-0.03-0.1-0.11
		v-0.34c0-2.48,0-2.94,0.03-3.46c0.03-0.57,0.16-0.85,0.6-0.93c0.2-0.03,0.34-0.05,0.47-0.05c0.2,0,0.3-0.03,0.3-0.15
		c0-0.11-0.1-0.14-0.3-0.15h-0.02h-0.02h-0.03h-0.03h-0.03c-0.64,0-1.59,0.05-1.96,0.05c-0.42,0-1.37-0.04-2.22-0.05h-0.04h-0.04
		h-0.04h-0.02h-0.02c-0.19,0-0.3,0.04-0.3,0.14v0.01v0.01c0.01,0.11,0.1,0.14,0.28,0.14c0.23,0,0.5,0.02,0.64,0.05
		c0.54,0.12,0.67,0.38,0.7,0.93c0.03,0.52,0.03,0.98,0.03,3.46v2.87c0,1.5,0,2.79-0.08,3.47c-0.06,0.47-0.15,0.83-0.47,0.9
		c-0.15,0.03-0.34,0.07-0.59,0.07c-0.2,0-0.26,0.05-0.26,0.13c0,0.11,0.11,0.16,0.33,0.16c0.65,0,1.68-0.05,2.05-0.05
		c0.46,0,1.48,0.05,2.55,0.05c0.19,0,0.33-0.05,0.33-0.16c0-0.08-0.08-0.13-0.26-0.13c-0.24,0-0.6-0.03-0.83-0.07
		c-0.49-0.07-0.59-0.42-0.64-0.88c-0.08-0.7-0.08-1.99-0.08-3.49v-1.44c0-0.08,0.05-0.1,0.1-0.1h6.23c0.05,0,0.1,0.03,0.1,0.1v1.44
		c0,1.5,0,2.79-0.08,3.47c-0.06,0.47-0.15,0.83-0.47,0.9c-0.15,0.03-0.34,0.07-0.59,0.07c-0.19,0-0.26,0.05-0.26,0.13
		c0,0.11,0.11,0.16,0.34,0.16c0.64,0,1.67-0.05,2.04-0.05c0.46,0,1.49,0.05,2.54,0.05c0.2,0,0.33-0.05,0.33-0.16
		c0-0.08-0.08-0.13-0.26-0.13c-0.25,0-0.61-0.03-0.83-0.07c-0.49-0.07-0.59-0.42-0.64-0.88c-0.08-0.7-0.08-1.99-0.08-3.49v-2.87
		c0-2.48,0-2.94,0.03-3.46c0.03-0.57,0.16-0.85,0.61-0.93c0.2-0.03,0.34-0.05,0.47-0.05c0.2,0,0.29-0.03,0.29-0.15
		C423.76,295.92,423.66,295.89,423.46,295.89"/>
	<linearGradient id="SVGID_25_" gradientUnits="userSpaceOnUse" x1="432.5551" y1="292.9655" x2="432.5551" y2="356.5349">
		<stop  offset="0" style="stop-color:#E82429"/>
		<stop  offset="1" style="stop-color:#4E1615"/>
	</linearGradient>
	<path class="st25" d="M429.57,302.41L429.57,302.41c0,1.73,0.02,2.99,0.03,3.3c0.02,0.41,0.05,1.06,0.18,1.24
		c0.21,0.31,0.85,0.65,2.14,0.65c1.66,0,2.77-0.33,3.75-1.17c1.04-0.9,1.37-2.38,1.37-4.06c0-2.07-0.86-3.41-1.57-4.08
		c-1.5-1.43-3.36-1.63-4.63-1.63c-0.32,0-0.93,0.05-1.06,0.11c-0.15,0.06-0.2,0.14-0.2,0.32c-0.02,0.56-0.02,1.97-0.02,3.26V302.41z
		 M431.39,295.89h-0.1h-0.1h-0.1h-0.05h-0.05h-0.05c-0.94,0-1.89,0.05-2.38,0.05c-0.44,0-1.39-0.04-2.22-0.05h-0.04h-0.04h-0.04
		h-0.02h-0.02c-0.2,0-0.3,0.04-0.31,0.13v0.04c0.01,0.1,0.11,0.13,0.28,0.13c0.23,0,0.5,0.02,0.64,0.05
		c0.54,0.12,0.67,0.38,0.7,0.93c0.03,0.52,0.03,0.98,0.03,3.46v2.87c0,1.5,0,2.79-0.08,3.47c-0.07,0.47-0.15,0.83-0.47,0.9
		c-0.15,0.03-0.34,0.07-0.59,0.07c-0.2,0-0.26,0.05-0.26,0.13c0,0.11,0.11,0.16,0.33,0.16c0.65,0,1.68-0.05,2.06-0.05
		c0.81,0,2.28,0.19,3.47,0.19c3.02,0,4.72-1.16,5.46-1.92c0.91-0.93,1.78-2.5,1.78-4.55c0-1.94-0.76-3.3-1.58-4.14
		C435.95,295.97,433.4,295.89,431.39,295.89z"/>
	<g>
		<path class="st26" d="M364.57,324.04c1.25,0,2.36,0.27,3.32,0.81c0.96,0.54,1.72,1.34,2.26,2.4c0.55,1.06,0.82,2.16,0.82,3.3
			c0,2.02-0.59,4.14-1.76,6.36c-1.17,2.22-2.7,3.91-4.59,5.08c-1.89,1.17-3.84,1.75-5.86,1.75c-1.45,0-2.67-0.32-3.65-0.97
			c-0.98-0.64-1.7-1.49-2.17-2.55c-0.47-1.06-0.7-2.08-0.7-3.07c0-1.76,0.42-3.5,1.27-5.22c0.85-1.72,1.86-3.15,3.04-4.31
			c1.18-1.15,2.43-2.04,3.76-2.66C361.65,324.35,363.07,324.04,364.57,324.04z M364.1,324.92c-0.93,0-1.83,0.23-2.72,0.69
			c-0.88,0.46-1.76,1.21-2.63,2.25c-0.87,1.04-1.65,2.41-2.35,4.09c-0.85,2.07-1.28,4.03-1.28,5.88c0,1.32,0.34,2.48,1.01,3.49
			c0.68,1.01,1.71,1.52,3.11,1.52c0.84,0,1.67-0.21,2.48-0.63c0.81-0.42,1.66-1.13,2.54-2.14c1.1-1.27,2.03-2.89,2.78-4.86
			c0.75-1.97,1.13-3.8,1.13-5.51c0-1.26-0.34-2.37-1.01-3.34C366.48,325.41,365.46,324.92,364.1,324.92z"/>
		<path class="st26" d="M377.38,330.73l-1.85,6.32c1.73-2.58,3.06-4.28,3.98-5.1c0.92-0.81,1.81-1.22,2.66-1.22
			c0.46,0,0.85,0.15,1.15,0.46c0.3,0.31,0.45,0.7,0.45,1.19c0,0.56-0.13,1.3-0.4,2.22l-1.69,5.85c-0.19,0.68-0.29,1.09-0.29,1.24
			c0,0.13,0.04,0.24,0.11,0.33c0.07,0.09,0.15,0.13,0.24,0.13c0.11,0,0.25-0.06,0.4-0.18c0.49-0.39,1.03-0.98,1.61-1.78l0.43,0.26
			c-0.86,1.23-1.68,2.11-2.45,2.64c-0.54,0.36-1.02,0.54-1.44,0.54c-0.34,0-0.62-0.1-0.82-0.31c-0.2-0.21-0.31-0.49-0.31-0.84
			c0-0.44,0.16-1.21,0.47-2.29l1.61-5.58c0.2-0.69,0.31-1.24,0.31-1.63c0-0.19-0.06-0.34-0.18-0.45c-0.12-0.12-0.27-0.17-0.44-0.17
			c-0.26,0-0.57,0.11-0.93,0.33c-0.69,0.42-1.4,1.1-2.14,2.06c-0.74,0.96-1.52,2.18-2.35,3.67c-0.44,0.79-0.8,1.65-1.08,2.58
			l-0.69,2.29h-2.08l2.53-8.7c0.3-1.05,0.44-1.68,0.44-1.89c0-0.2-0.08-0.38-0.24-0.54c-0.16-0.15-0.36-0.23-0.6-0.23
			c-0.11,0-0.31,0.02-0.58,0.06l-0.53,0.08l-0.08-0.5L377.38,330.73z"/>
		<path class="st26" d="M388.71,338.07c-0.06,0.46-0.1,0.85-0.1,1.15c0,0.82,0.29,1.53,0.88,2.1c0.58,0.58,1.29,0.87,2.13,0.87
			c0.67,0,1.31-0.14,1.92-0.41c0.62-0.27,1.53-0.88,2.74-1.81l0.29,0.4c-2.19,2.18-4.29,3.26-6.28,3.26c-1.35,0-2.37-0.43-3.06-1.28
			c-0.69-0.85-1.03-1.79-1.03-2.82c0-1.38,0.43-2.79,1.28-4.24c0.85-1.44,1.92-2.57,3.21-3.37c1.29-0.8,2.61-1.2,3.97-1.2
			c0.98,0,1.71,0.2,2.18,0.6c0.47,0.4,0.71,0.87,0.71,1.42c0,0.77-0.31,1.51-0.92,2.21c-0.81,0.92-1.99,1.66-3.56,2.22
			C392.05,337.56,390.59,337.85,388.71,338.07z M388.81,337.39c1.37-0.16,2.49-0.43,3.35-0.81c1.14-0.51,1.99-1.12,2.56-1.83
			c0.57-0.71,0.85-1.38,0.85-2.02c0-0.39-0.12-0.7-0.37-0.94c-0.25-0.24-0.6-0.36-1.05-0.36c-0.94,0-1.95,0.5-3.01,1.51
			C390.09,333.94,389.31,335.42,388.81,337.39z"/>
		<path class="st26" d="M405.26,343.73l1.56-6.99h0.47c-0.06,0.68-0.1,1.24-0.1,1.68c0,1.27,0.41,2.3,1.22,3.1
			c0.81,0.8,1.87,1.19,3.17,1.19c1.21,0,2.13-0.37,2.76-1.12c0.63-0.75,0.94-1.6,0.94-2.58c0-0.63-0.14-1.2-0.43-1.72
			c-0.44-0.77-1.6-2.12-3.49-4.06c-0.92-0.93-1.51-1.62-1.76-2.07c-0.43-0.75-0.64-1.54-0.64-2.36c0-1.31,0.49-2.44,1.47-3.38
			c0.98-0.94,2.24-1.4,3.78-1.4c0.52,0,1.01,0.05,1.47,0.15c0.29,0.06,0.81,0.24,1.57,0.56c0.54,0.21,0.83,0.33,0.89,0.35
			c0.13,0.03,0.27,0.04,0.43,0.04c0.27,0,0.5-0.07,0.69-0.21c0.19-0.14,0.42-0.44,0.68-0.89h0.53l-1.44,6.25h-0.47
			c0.04-0.56,0.06-1,0.06-1.35c0-1.12-0.37-2.04-1.11-2.75c-0.74-0.71-1.72-1.07-2.93-1.07c-0.96,0-1.75,0.28-2.35,0.85
			c-0.6,0.56-0.9,1.22-0.9,1.96c0,0.65,0.19,1.27,0.58,1.85c0.38,0.59,1.27,1.55,2.65,2.88c1.38,1.33,2.28,2.37,2.69,3.11
			c0.41,0.75,0.61,1.54,0.61,2.38c0,0.95-0.25,1.88-0.76,2.77c-0.5,0.89-1.23,1.59-2.17,2.08c-0.94,0.49-1.98,0.74-3.1,0.74
			c-0.56,0-1.07-0.05-1.56-0.15c-0.48-0.1-1.25-0.35-2.31-0.75c-0.36-0.14-0.66-0.21-0.9-0.21c-0.55,0-0.97,0.37-1.28,1.11H405.26z"
			/>
		<path class="st26" d="M426.68,327.29l-1.08,3.78h2.18l-0.24,0.88h-2.17l-2.39,8.2c-0.26,0.88-0.39,1.45-0.39,1.71
			c0,0.16,0.04,0.28,0.11,0.36c0.07,0.08,0.16,0.12,0.26,0.12c0.23,0,0.54-0.16,0.92-0.49c0.22-0.19,0.72-0.75,1.49-1.71l0.46,0.35
			c-0.85,1.24-1.66,2.12-2.42,2.63c-0.52,0.35-1.04,0.53-1.57,0.53c-0.41,0-0.74-0.13-1-0.38c-0.26-0.25-0.39-0.58-0.39-0.98
			c0-0.5,0.15-1.26,0.44-2.29l2.32-8.04h-2.1l0.14-0.54c1.02-0.28,1.87-0.69,2.54-1.24c0.68-0.55,1.43-1.51,2.26-2.87H426.68z"/>
		<path class="st26" d="M440.35,335.08c0,1.39-0.37,2.76-1.1,4.13c-0.74,1.36-1.76,2.44-3.08,3.24c-1.32,0.8-2.59,1.19-3.83,1.19
			c-1.27,0-2.3-0.41-3.1-1.22c-0.8-0.81-1.2-1.86-1.2-3.15c0-1.36,0.39-2.73,1.17-4.1c0.78-1.37,1.83-2.45,3.14-3.25
			c1.31-0.8,2.58-1.19,3.8-1.19s2.23,0.4,3.02,1.21C439.95,332.75,440.35,333.79,440.35,335.08z M438.04,334.12
			c0-0.86-0.21-1.52-0.63-1.98c-0.42-0.46-0.97-0.69-1.63-0.69c-1.36,0-2.61,0.98-3.76,2.92c-1.14,1.95-1.72,3.89-1.72,5.81
			c0,0.88,0.22,1.56,0.67,2.04c0.44,0.48,1,0.72,1.68,0.72c1.31,0,2.53-0.97,3.67-2.91C437.47,338.09,438.04,336.12,438.04,334.12z"
			/>
		<path class="st26" d="M447.71,330.73l-0.96,3.2c1.01-1.19,1.91-2.01,2.7-2.49c0.79-0.47,1.6-0.71,2.42-0.71
			c0.82,0,1.53,0.33,2.11,0.98c0.58,0.65,0.88,1.5,0.88,2.55c0,2.04-0.83,4.11-2.49,6.22c-1.66,2.11-3.59,3.16-5.79,3.16
			c-0.46,0-0.87-0.05-1.23-0.15c-0.36-0.1-0.76-0.28-1.2-0.54l-1.01,3.58c-0.2,0.7-0.31,1.16-0.31,1.38c0,0.2,0.05,0.38,0.16,0.52
			c0.11,0.14,0.28,0.25,0.52,0.33c0.24,0.08,0.72,0.12,1.43,0.12l-0.12,0.51h-6.54l0.14-0.51c0.86-0.04,1.44-0.19,1.74-0.44
			c0.3-0.26,0.62-0.98,0.95-2.15l3.51-12.17c0.21-0.77,0.32-1.25,0.32-1.43c0-0.25-0.07-0.44-0.22-0.58
			c-0.14-0.14-0.36-0.21-0.66-0.21c-0.27,0-0.64,0.03-1.13,0.1v-0.54L447.71,330.73z M444.47,341.85c0.57,0.69,1.35,1.03,2.32,1.03
			c0.48,0,0.97-0.13,1.47-0.4c0.5-0.27,0.99-0.67,1.47-1.19c0.48-0.53,0.91-1.14,1.29-1.83c0.38-0.69,0.72-1.5,1.02-2.44
			c0.3-0.94,0.45-1.86,0.45-2.78c0-0.74-0.17-1.31-0.51-1.7c-0.34-0.39-0.73-0.59-1.19-0.59c-1,0-1.99,0.57-2.97,1.72
			c-0.98,1.15-1.69,2.49-2.15,4.03L444.47,341.85z"/>
		<path class="st26" d="M471.77,324.47l1.74,15.17l10.93-15.17h4.6v0.51c-1,0.06-1.59,0.13-1.76,0.19
			c-0.31,0.12-0.59,0.36-0.84,0.72c-0.25,0.36-0.53,1.06-0.83,2.08l-3.49,11.95c-0.2,0.69-0.31,1.24-0.31,1.64
			c0,0.36,0.13,0.63,0.38,0.82c0.35,0.27,0.91,0.4,1.67,0.4h0.33l-0.13,0.51h-7.93l0.14-0.51h0.38c0.7,0,1.24-0.1,1.61-0.31
			c0.29-0.15,0.54-0.43,0.77-0.84c0.23-0.41,0.54-1.33,0.95-2.74l3.11-10.92l-10.99,15.32h-0.56l-1.76-15.32l-3.36,11.66
			c-0.29,0.99-0.43,1.66-0.43,2c0,0.34,0.12,0.6,0.38,0.78c0.25,0.18,0.86,0.3,1.82,0.37l-0.15,0.51h-6.21l0.15-0.51h0.38
			c0.92,0,1.58-0.23,1.99-0.69c0.3-0.33,0.61-1.06,0.93-2.17l4.1-14.04c-0.31-0.31-0.6-0.53-0.88-0.64
			c-0.28-0.11-0.79-0.2-1.54-0.26l0.14-0.51H471.77z"/>
		<path class="st26" d="M489.85,338.07c-0.07,0.46-0.1,0.85-0.1,1.15c0,0.82,0.29,1.53,0.88,2.1c0.58,0.58,1.29,0.87,2.13,0.87
			c0.67,0,1.31-0.14,1.92-0.41c0.62-0.27,1.53-0.88,2.74-1.81l0.29,0.4c-2.2,2.18-4.29,3.26-6.28,3.26c-1.35,0-2.37-0.43-3.06-1.28
			c-0.69-0.85-1.03-1.79-1.03-2.82c0-1.38,0.43-2.79,1.28-4.24c0.85-1.44,1.92-2.57,3.21-3.37c1.29-0.8,2.61-1.2,3.97-1.2
			c0.98,0,1.71,0.2,2.18,0.6c0.47,0.4,0.71,0.87,0.71,1.42c0,0.77-0.31,1.51-0.92,2.21c-0.81,0.92-1.99,1.66-3.56,2.22
			C493.18,337.56,491.73,337.85,489.85,338.07z M489.94,337.39c1.37-0.16,2.49-0.43,3.35-0.81c1.14-0.51,1.99-1.12,2.56-1.83
			c0.57-0.71,0.85-1.38,0.85-2.02c0-0.39-0.12-0.7-0.37-0.94c-0.25-0.24-0.6-0.36-1.05-0.36c-0.94,0-1.95,0.5-3.01,1.51
			C491.22,333.94,490.44,335.42,489.94,337.39z"/>
		<path class="st26" d="M514.48,323.55l-4.78,16.39c-0.26,0.89-0.39,1.47-0.39,1.75c0,0.09,0.04,0.18,0.12,0.26
			c0.08,0.08,0.16,0.12,0.24,0.12c0.12,0,0.26-0.06,0.43-0.18c0.31-0.22,0.84-0.78,1.58-1.67l0.47,0.29
			c-0.67,0.93-1.34,1.68-2.02,2.25c-0.68,0.57-1.32,0.86-1.91,0.86c-0.32,0-0.57-0.11-0.78-0.33c-0.2-0.22-0.31-0.54-0.31-0.94
			c0-0.53,0.14-1.24,0.42-2.13l0.54-1.72c-1.34,2.07-2.57,3.51-3.67,4.31c-0.76,0.55-1.49,0.82-2.18,0.82
			c-0.7,0-1.32-0.31-1.84-0.94c-0.52-0.63-0.78-1.47-0.78-2.55c0-1.38,0.44-2.85,1.32-4.42c0.88-1.56,2.04-2.84,3.49-3.82
			c1.14-0.79,2.19-1.18,3.14-1.18c0.5,0,0.93,0.1,1.29,0.31c0.36,0.2,0.72,0.54,1.07,1.01l1.36-4.83c0.1-0.34,0.19-0.62,0.25-0.82
			c0.11-0.37,0.17-0.68,0.17-0.92c0-0.19-0.07-0.36-0.21-0.49c-0.19-0.16-0.44-0.24-0.75-0.24c-0.21,0-0.57,0.03-1.06,0.1v-0.51
			L514.48,323.55z M509.32,333.41c0-0.59-0.17-1.07-0.51-1.43c-0.34-0.36-0.78-0.54-1.31-0.54c-1.17,0-2.38,0.96-3.65,2.89
			c-1.26,1.93-1.9,3.77-1.9,5.53c0,0.69,0.15,1.23,0.46,1.59c0.31,0.37,0.67,0.55,1.1,0.55c0.96,0,2.17-1.04,3.63-3.13
			C508.6,336.79,509.32,334.97,509.32,333.41z"/>
		<path class="st26" d="M519.85,330.73l-2.75,9.74c-0.19,0.66-0.28,1.05-0.28,1.18c0,0.15,0.04,0.27,0.13,0.36
			c0.09,0.09,0.19,0.14,0.31,0.14c0.14,0,0.31-0.07,0.5-0.22c0.53-0.42,1.06-1.01,1.6-1.78l0.49,0.32
			c-0.63,0.96-1.37,1.77-2.22,2.43c-0.63,0.49-1.23,0.74-1.81,0.74c-0.38,0-0.69-0.11-0.93-0.34c-0.24-0.23-0.36-0.51-0.36-0.85
			c0-0.34,0.12-0.91,0.35-1.71l1.81-6.22c0.3-1.02,0.44-1.66,0.44-1.92c0-0.2-0.07-0.37-0.22-0.5c-0.14-0.13-0.34-0.19-0.59-0.19
			c-0.2,0-0.63,0.05-1.26,0.15v-0.54L519.85,330.73z M519.67,325.22c0.39,0,0.72,0.13,0.99,0.4c0.27,0.27,0.4,0.6,0.4,0.99
			c0,0.38-0.14,0.71-0.41,0.98c-0.27,0.27-0.6,0.41-0.98,0.41c-0.38,0-0.71-0.14-0.98-0.41c-0.27-0.27-0.41-0.6-0.41-0.98
			c0-0.39,0.13-0.72,0.4-0.99C518.95,325.35,519.28,325.22,519.67,325.22z"/>
		<path class="st26" d="M532.2,340.28c-0.96,1.16-1.94,2.01-2.92,2.55c-0.98,0.54-2.02,0.81-3.11,0.81c-1.32,0-2.34-0.37-3.08-1.11
			c-0.74-0.74-1.1-1.74-1.1-2.99c0-1.42,0.4-2.81,1.19-4.18c0.79-1.37,1.86-2.48,3.2-3.34c1.34-0.86,2.65-1.29,3.94-1.29
			c1.01,0,1.76,0.21,2.26,0.63c0.5,0.42,0.75,0.94,0.75,1.55c0,0.57-0.18,1.07-0.53,1.47c-0.26,0.31-0.58,0.47-0.96,0.47
			c-0.29,0-0.53-0.09-0.72-0.28c-0.19-0.19-0.28-0.42-0.28-0.69c0-0.18,0.03-0.34,0.1-0.49c0.07-0.15,0.21-0.33,0.43-0.53
			c0.22-0.21,0.35-0.36,0.4-0.45c0.05-0.09,0.07-0.19,0.07-0.29c0-0.19-0.09-0.36-0.26-0.49c-0.27-0.19-0.65-0.28-1.14-0.28
			c-0.91,0-1.81,0.32-2.7,0.96c-0.89,0.64-1.65,1.55-2.28,2.72c-0.76,1.43-1.14,2.85-1.14,4.28c0,0.94,0.27,1.69,0.81,2.24
			c0.54,0.55,1.27,0.83,2.2,0.83c0.71,0,1.42-0.18,2.12-0.53c0.7-0.36,1.48-1,2.35-1.94L532.2,340.28z"/>
		<path class="st26" d="M547.19,330.73l-2.71,9.42l-0.31,1.26c-0.03,0.12-0.04,0.22-0.04,0.31c0,0.15,0.05,0.28,0.14,0.39
			c0.07,0.08,0.17,0.13,0.28,0.13c0.12,0,0.28-0.07,0.47-0.22c0.36-0.27,0.84-0.82,1.44-1.67l0.47,0.33c-0.64,0.96-1.3,1.7-1.97,2.2
			c-0.68,0.5-1.3,0.76-1.88,0.76c-0.4,0-0.7-0.1-0.9-0.3c-0.2-0.2-0.3-0.49-0.3-0.87c0-0.45,0.1-1.05,0.31-1.79l0.29-1.04
			c-1.21,1.58-2.33,2.69-3.35,3.32c-0.73,0.45-1.45,0.68-2.15,0.68c-0.68,0-1.26-0.28-1.75-0.84c-0.49-0.56-0.74-1.33-0.74-2.31
			c0-1.47,0.44-3.03,1.33-4.66c0.88-1.63,2.01-2.94,3.37-3.92c1.06-0.78,2.07-1.17,3.01-1.17c0.56,0,1.03,0.15,1.41,0.44
			c0.38,0.3,0.66,0.79,0.85,1.47l0.5-1.58L547.19,330.73z M542.25,331.45c-0.59,0-1.22,0.28-1.89,0.83
			c-0.94,0.79-1.79,1.95-2.52,3.5s-1.1,2.95-1.1,4.2c0,0.63,0.16,1.13,0.47,1.49c0.31,0.37,0.68,0.55,1.08,0.55
			c1.01,0,2.11-0.75,3.29-2.24c1.58-1.98,2.38-4.01,2.38-6.1c0-0.79-0.15-1.36-0.46-1.71C543.19,331.63,542.77,331.45,542.25,331.45
			z"/>
		<path class="st26" d="M556.53,323.55l-4.75,16.53c-0.23,0.82-0.35,1.33-0.35,1.51c0,0.14,0.04,0.25,0.13,0.35
			c0.09,0.09,0.2,0.14,0.33,0.14c0.18,0,0.37-0.08,0.57-0.24c0.48-0.38,0.99-0.97,1.51-1.76l0.42,0.43
			c-0.88,1.24-1.69,2.11-2.43,2.6c-0.55,0.35-1.07,0.53-1.56,0.53c-0.35,0-0.65-0.12-0.88-0.36c-0.24-0.24-0.35-0.52-0.35-0.83
			c0-0.33,0.15-1.02,0.44-2.06l3.76-13.03c0.31-1.06,0.46-1.68,0.46-1.83c0-0.22-0.09-0.4-0.26-0.55c-0.18-0.14-0.45-0.22-0.82-0.22
			c-0.21,0-0.54,0.03-0.97,0.1v-0.51L556.53,323.55z"/>
		<path class="st26" d="M576.13,343.3h-13.96l0.19-0.51c0.74-0.02,1.24-0.08,1.49-0.18c0.39-0.17,0.68-0.38,0.86-0.65
			c0.29-0.43,0.59-1.19,0.92-2.31l3.32-11.46c0.28-0.94,0.42-1.64,0.42-2.08c0-0.35-0.13-0.63-0.38-0.82
			c-0.25-0.19-0.73-0.29-1.44-0.29c-0.16,0-0.28,0-0.38-0.01l0.17-0.51h7.68l-0.11,0.51c-0.86,0-1.47,0.08-1.83,0.25
			c-0.36,0.17-0.66,0.44-0.9,0.82c-0.17,0.25-0.44,1.03-0.82,2.33l-3.26,11.27c-0.25,0.85-0.37,1.44-0.37,1.78
			c0,0.22,0.12,0.44,0.37,0.64c0.16,0.14,0.51,0.21,1.07,0.21h1.82c1.32,0,2.38-0.17,3.15-0.5c0.57-0.25,1.1-0.63,1.58-1.13
			c0.26-0.28,0.72-0.97,1.38-2.07l0.36-0.63h0.51L576.13,343.3z"/>
		<path class="st26" d="M592.26,330.73l-2.71,9.42l-0.31,1.26c-0.03,0.12-0.04,0.22-0.04,0.31c0,0.15,0.05,0.28,0.14,0.39
			c0.07,0.08,0.17,0.13,0.28,0.13c0.12,0,0.28-0.07,0.47-0.22c0.36-0.27,0.84-0.82,1.44-1.67l0.47,0.33c-0.64,0.96-1.3,1.7-1.97,2.2
			c-0.68,0.5-1.3,0.76-1.88,0.76c-0.4,0-0.7-0.1-0.9-0.3c-0.2-0.2-0.3-0.49-0.3-0.87c0-0.45,0.1-1.05,0.31-1.79l0.29-1.04
			c-1.21,1.58-2.33,2.69-3.35,3.32c-0.73,0.45-1.45,0.68-2.15,0.68c-0.68,0-1.26-0.28-1.75-0.84c-0.49-0.56-0.74-1.33-0.74-2.31
			c0-1.47,0.44-3.03,1.33-4.66c0.88-1.63,2.01-2.94,3.37-3.92c1.06-0.78,2.07-1.17,3.01-1.17c0.56,0,1.03,0.15,1.41,0.44
			c0.38,0.3,0.66,0.79,0.85,1.47l0.5-1.58L592.26,330.73z M587.31,331.45c-0.59,0-1.22,0.28-1.89,0.83
			c-0.94,0.79-1.79,1.95-2.52,3.5c-0.74,1.55-1.1,2.95-1.1,4.2c0,0.63,0.16,1.13,0.47,1.49c0.31,0.37,0.68,0.55,1.08,0.55
			c1.01,0,2.11-0.75,3.29-2.24c1.58-1.98,2.38-4.01,2.38-6.1c0-0.79-0.15-1.36-0.46-1.71C588.26,331.63,587.84,331.45,587.31,331.45
			z"/>
		<path class="st26" d="M603.46,330.73l-0.85,4.26h-0.51c-0.05-1.24-0.31-2.14-0.79-2.71c-0.48-0.56-1.08-0.85-1.79-0.85
			c-0.57,0-1.03,0.16-1.37,0.47c-0.34,0.31-0.51,0.69-0.51,1.14c0,0.31,0.07,0.6,0.2,0.88c0.13,0.28,0.43,0.67,0.88,1.17
			c1.2,1.32,1.98,2.31,2.33,2.97c0.35,0.67,0.53,1.3,0.53,1.89c0,0.96-0.4,1.82-1.2,2.56c-0.8,0.75-1.81,1.12-3.04,1.12
			c-0.67,0-1.44-0.16-2.31-0.47c-0.31-0.11-0.54-0.17-0.71-0.17c-0.42,0-0.73,0.21-0.94,0.64h-0.51l0.85-4.5h0.51
			c0.06,1.41,0.35,2.4,0.88,2.99c0.53,0.58,1.25,0.88,2.17,0.88c0.7,0,1.26-0.2,1.67-0.59c0.41-0.39,0.62-0.88,0.62-1.45
			c0-0.37-0.07-0.71-0.22-1.03c-0.26-0.56-0.8-1.32-1.63-2.31c-0.83-0.98-1.36-1.72-1.6-2.21c-0.24-0.49-0.35-0.98-0.35-1.47
			c0-0.9,0.33-1.66,0.98-2.28c0.65-0.62,1.49-0.93,2.52-0.93c0.3,0,0.56,0.02,0.81,0.07c0.13,0.03,0.43,0.13,0.91,0.31
			c0.48,0.18,0.79,0.27,0.95,0.27c0.4,0,0.73-0.22,1-0.65H603.46z"/>
		<path class="st26" d="M607.59,338.07c-0.07,0.46-0.1,0.85-0.1,1.15c0,0.82,0.29,1.53,0.88,2.1c0.58,0.58,1.29,0.87,2.13,0.87
			c0.67,0,1.31-0.14,1.92-0.41c0.62-0.27,1.53-0.88,2.74-1.81l0.29,0.4c-2.2,2.18-4.29,3.26-6.28,3.26c-1.35,0-2.37-0.43-3.06-1.28
			c-0.69-0.85-1.03-1.79-1.03-2.82c0-1.38,0.43-2.79,1.28-4.24c0.85-1.44,1.92-2.57,3.21-3.37c1.29-0.8,2.61-1.2,3.97-1.2
			c0.98,0,1.71,0.2,2.18,0.6c0.47,0.4,0.71,0.87,0.71,1.42c0,0.77-0.31,1.51-0.92,2.21c-0.81,0.92-1.99,1.66-3.56,2.22
			C610.93,337.56,609.47,337.85,607.59,338.07z M607.69,337.39c1.37-0.16,2.49-0.43,3.35-0.81c1.14-0.51,1.99-1.12,2.56-1.83
			c0.57-0.71,0.85-1.38,0.85-2.02c0-0.39-0.12-0.7-0.37-0.94c-0.25-0.24-0.6-0.36-1.05-0.36c-0.94,0-1.95,0.5-3.01,1.51
			C608.97,333.94,608.19,335.42,607.69,337.39z"/>
		<path class="st26" d="M618.32,331.51l4.79-0.78l-2,6.75c1.62-2.77,3.09-4.7,4.42-5.81c0.75-0.63,1.36-0.94,1.83-0.94
			c0.31,0,0.55,0.09,0.72,0.27c0.18,0.18,0.26,0.44,0.26,0.78c0,0.61-0.16,1.19-0.47,1.75c-0.22,0.42-0.54,0.63-0.96,0.63
			c-0.21,0-0.4-0.07-0.55-0.21c-0.15-0.14-0.25-0.35-0.28-0.64c-0.02-0.18-0.06-0.29-0.12-0.35c-0.07-0.07-0.16-0.11-0.26-0.11
			c-0.16,0-0.31,0.04-0.44,0.11c-0.24,0.13-0.61,0.49-1.1,1.08c-0.77,0.91-1.6,2.08-2.5,3.53c-0.39,0.61-0.72,1.3-1,2.07
			c-0.39,1.06-0.61,1.69-0.67,1.9l-0.44,1.75h-2.13l2.57-8.63c0.3-1,0.44-1.71,0.44-2.14c0-0.17-0.07-0.31-0.21-0.42
			c-0.19-0.15-0.43-0.22-0.74-0.22c-0.19,0-0.55,0.04-1.07,0.12L618.32,331.51z"/>
		<path class="st26" d="M635.21,343.73l1.56-6.99h0.47c-0.06,0.68-0.1,1.24-0.1,1.68c0,1.27,0.41,2.3,1.22,3.1
			c0.81,0.8,1.87,1.19,3.17,1.19c1.21,0,2.13-0.37,2.76-1.12c0.63-0.75,0.94-1.6,0.94-2.58c0-0.63-0.14-1.2-0.43-1.72
			c-0.44-0.77-1.6-2.12-3.49-4.06c-0.92-0.93-1.51-1.62-1.76-2.07c-0.43-0.75-0.64-1.54-0.64-2.36c0-1.31,0.49-2.44,1.47-3.38
			c0.98-0.94,2.24-1.4,3.78-1.4c0.52,0,1.01,0.05,1.47,0.15c0.29,0.06,0.81,0.24,1.57,0.56c0.54,0.21,0.83,0.33,0.89,0.35
			c0.13,0.03,0.27,0.04,0.43,0.04c0.27,0,0.5-0.07,0.69-0.21c0.19-0.14,0.42-0.44,0.68-0.89h0.53l-1.44,6.25h-0.47
			c0.04-0.56,0.06-1,0.06-1.35c0-1.12-0.37-2.04-1.11-2.75c-0.74-0.71-1.72-1.07-2.93-1.07c-0.96,0-1.75,0.28-2.35,0.85
			c-0.6,0.56-0.9,1.22-0.9,1.96c0,0.65,0.19,1.27,0.58,1.85c0.38,0.59,1.27,1.55,2.65,2.88c1.38,1.33,2.28,2.37,2.69,3.11
			c0.41,0.75,0.61,1.54,0.61,2.38c0,0.95-0.25,1.88-0.76,2.77c-0.5,0.89-1.23,1.59-2.17,2.08c-0.94,0.49-1.98,0.74-3.1,0.74
			c-0.56,0-1.07-0.05-1.56-0.15c-0.48-0.1-1.25-0.35-2.31-0.75c-0.36-0.14-0.66-0.21-0.9-0.21c-0.55,0-0.97,0.37-1.28,1.11H635.21z"
			/>
		<path class="st26" d="M662.4,335.08c0,1.39-0.37,2.76-1.1,4.13c-0.74,1.36-1.76,2.44-3.08,3.24c-1.32,0.8-2.59,1.19-3.83,1.19
			c-1.27,0-2.3-0.41-3.1-1.22c-0.8-0.81-1.2-1.86-1.2-3.15c0-1.36,0.39-2.73,1.17-4.1c0.78-1.37,1.83-2.45,3.14-3.25
			c1.31-0.8,2.58-1.19,3.8-1.19c1.22,0,2.23,0.4,3.02,1.21C662,332.75,662.4,333.79,662.4,335.08z M660.09,334.12
			c0-0.86-0.21-1.52-0.63-1.98c-0.42-0.46-0.97-0.69-1.63-0.69c-1.36,0-2.61,0.98-3.76,2.92c-1.14,1.95-1.72,3.89-1.72,5.81
			c0,0.88,0.22,1.56,0.67,2.04c0.44,0.48,1,0.72,1.68,0.72c1.31,0,2.53-0.97,3.67-2.91C659.52,338.09,660.09,336.12,660.09,334.12z"
			/>
		<path class="st26" d="M671.93,323.55l-4.75,16.53c-0.23,0.82-0.35,1.33-0.35,1.51c0,0.14,0.04,0.25,0.13,0.35
			c0.09,0.09,0.2,0.14,0.33,0.14c0.18,0,0.37-0.08,0.57-0.24c0.48-0.38,0.99-0.97,1.51-1.76l0.42,0.43
			c-0.88,1.24-1.69,2.11-2.43,2.6c-0.55,0.35-1.07,0.53-1.56,0.53c-0.35,0-0.65-0.12-0.88-0.36c-0.24-0.24-0.35-0.52-0.35-0.83
			c0-0.33,0.15-1.02,0.44-2.06l3.76-13.03c0.31-1.06,0.46-1.68,0.46-1.83c0-0.22-0.09-0.4-0.26-0.55c-0.18-0.14-0.45-0.22-0.82-0.22
			c-0.21,0-0.54,0.03-0.97,0.1v-0.51L671.93,323.55z"/>
		<path class="st26" d="M684.77,331.06l-2.42,8.28c-0.36,1.23-0.54,2.01-0.54,2.33c0,0.17,0.03,0.29,0.09,0.37
			c0.06,0.08,0.14,0.12,0.24,0.12c0.16,0,0.33-0.07,0.52-0.22c0.19-0.14,0.67-0.72,1.44-1.72l0.42,0.32
			c-0.73,1.16-1.48,2.01-2.25,2.56c-0.51,0.35-1,0.53-1.47,0.53c-0.36,0-0.64-0.1-0.85-0.31c-0.2-0.2-0.31-0.47-0.31-0.79
			c0-0.31,0.06-0.73,0.18-1.25c0.15-0.69,0.57-2.18,1.26-4.47c-1.57,2.58-2.89,4.37-3.95,5.35c-1.06,0.98-2.04,1.47-2.95,1.47
			c-0.43,0-0.79-0.15-1.08-0.44c-0.3-0.3-0.44-0.67-0.44-1.13c0-0.69,0.2-1.76,0.61-3.2l1.21-4.29c0.3-1.03,0.44-1.67,0.44-1.92
			c0-0.11-0.04-0.21-0.12-0.28c-0.08-0.08-0.16-0.12-0.26-0.12c-0.19,0-0.39,0.07-0.58,0.21c-0.19,0.14-0.63,0.65-1.32,1.54
			l-0.43-0.31c0.69-1.07,1.43-1.87,2.21-2.38c0.59-0.4,1.14-0.6,1.64-0.6c0.34,0,0.62,0.11,0.84,0.33c0.22,0.22,0.33,0.5,0.33,0.84
			c0,0.5-0.19,1.39-0.56,2.68l-1.31,4.49c-0.36,1.22-0.54,2-0.54,2.32c0,0.18,0.06,0.32,0.17,0.42c0.12,0.11,0.27,0.16,0.47,0.16
			c0.31,0,0.7-0.15,1.19-0.46c0.49-0.31,1.15-0.98,1.97-2.04c0.82-1.05,1.5-2.04,2.03-2.96c0.53-0.92,1.1-2.39,1.7-4.4l0.31-1.06
			H684.77z"/>
		<path class="st26" d="M692.99,327.29l-1.08,3.78h2.18l-0.24,0.88h-2.17l-2.39,8.2c-0.26,0.88-0.39,1.45-0.39,1.71
			c0,0.16,0.04,0.28,0.11,0.36c0.07,0.08,0.16,0.12,0.26,0.12c0.23,0,0.54-0.16,0.92-0.49c0.22-0.19,0.72-0.75,1.49-1.71l0.46,0.35
			c-0.85,1.24-1.66,2.12-2.42,2.63c-0.52,0.35-1.04,0.53-1.57,0.53c-0.41,0-0.74-0.13-1-0.38c-0.26-0.25-0.39-0.58-0.39-0.98
			c0-0.5,0.15-1.26,0.44-2.29l2.32-8.04h-2.1l0.14-0.54c1.02-0.28,1.87-0.69,2.54-1.24c0.68-0.55,1.43-1.51,2.26-2.87H692.99z"/>
		<path class="st26" d="M700.05,330.73l-2.75,9.74c-0.19,0.66-0.28,1.05-0.28,1.18c0,0.15,0.04,0.27,0.13,0.36
			c0.09,0.09,0.19,0.14,0.31,0.14c0.14,0,0.31-0.07,0.5-0.22c0.53-0.42,1.06-1.01,1.6-1.78l0.49,0.32
			c-0.63,0.96-1.37,1.77-2.22,2.43c-0.63,0.49-1.23,0.74-1.81,0.74c-0.38,0-0.69-0.11-0.93-0.34c-0.24-0.23-0.36-0.51-0.36-0.85
			c0-0.34,0.12-0.91,0.35-1.71l1.81-6.22c0.3-1.02,0.44-1.66,0.44-1.92c0-0.2-0.07-0.37-0.22-0.5c-0.14-0.13-0.34-0.19-0.59-0.19
			c-0.2,0-0.63,0.05-1.26,0.15v-0.54L700.05,330.73z M699.87,325.22c0.39,0,0.72,0.13,0.99,0.4c0.27,0.27,0.4,0.6,0.4,0.99
			c0,0.38-0.14,0.71-0.41,0.98c-0.27,0.27-0.6,0.41-0.98,0.41c-0.38,0-0.71-0.14-0.98-0.41c-0.27-0.27-0.41-0.6-0.41-0.98
			c0-0.39,0.13-0.72,0.4-0.99C699.15,325.35,699.48,325.22,699.87,325.22z"/>
		<path class="st26" d="M714.56,335.08c0,1.39-0.37,2.76-1.1,4.13c-0.74,1.36-1.76,2.44-3.08,3.24c-1.32,0.8-2.59,1.19-3.83,1.19
			c-1.27,0-2.3-0.41-3.1-1.22c-0.8-0.81-1.2-1.86-1.2-3.15c0-1.36,0.39-2.73,1.17-4.1c0.78-1.37,1.83-2.45,3.14-3.25
			c1.31-0.8,2.58-1.19,3.8-1.19c1.22,0,2.23,0.4,3.02,1.21S714.56,333.79,714.56,335.08z M712.26,334.12c0-0.86-0.21-1.52-0.63-1.98
			c-0.42-0.46-0.97-0.69-1.63-0.69c-1.36,0-2.61,0.98-3.76,2.92c-1.14,1.95-1.72,3.89-1.72,5.81c0,0.88,0.22,1.56,0.67,2.04
			c0.44,0.48,1,0.72,1.68,0.72c1.31,0,2.53-0.97,3.67-2.91C711.69,338.09,712.26,336.12,712.26,334.12z"/>
		<path class="st26" d="M721.91,330.73l-1.85,6.32c1.73-2.58,3.06-4.28,3.98-5.1c0.92-0.81,1.81-1.22,2.66-1.22
			c0.46,0,0.85,0.15,1.15,0.46c0.3,0.31,0.45,0.7,0.45,1.19c0,0.56-0.13,1.3-0.4,2.22l-1.69,5.85c-0.19,0.68-0.29,1.09-0.29,1.24
			c0,0.13,0.04,0.24,0.11,0.33c0.07,0.09,0.15,0.13,0.24,0.13c0.11,0,0.25-0.06,0.4-0.18c0.49-0.39,1.03-0.98,1.61-1.78l0.43,0.26
			c-0.86,1.23-1.68,2.11-2.45,2.64c-0.54,0.36-1.02,0.54-1.44,0.54c-0.34,0-0.62-0.1-0.82-0.31c-0.2-0.21-0.31-0.49-0.31-0.84
			c0-0.44,0.16-1.21,0.47-2.29l1.61-5.58c0.2-0.69,0.31-1.24,0.31-1.63c0-0.19-0.06-0.34-0.18-0.45c-0.12-0.12-0.27-0.17-0.44-0.17
			c-0.26,0-0.57,0.11-0.93,0.33c-0.69,0.42-1.4,1.1-2.14,2.06c-0.74,0.96-1.52,2.18-2.35,3.67c-0.44,0.79-0.8,1.65-1.08,2.58
			l-0.69,2.29h-2.08l2.53-8.7c0.3-1.05,0.44-1.68,0.44-1.89c0-0.2-0.08-0.38-0.24-0.54c-0.16-0.15-0.36-0.23-0.6-0.23
			c-0.11,0-0.31,0.02-0.58,0.06l-0.53,0.08l-0.08-0.5L721.91,330.73z"/>
		<path class="st26" d="M740.18,330.73l-0.85,4.26h-0.51c-0.05-1.24-0.31-2.14-0.79-2.71c-0.48-0.56-1.08-0.85-1.79-0.85
			c-0.57,0-1.03,0.16-1.37,0.47c-0.34,0.31-0.51,0.69-0.51,1.14c0,0.31,0.07,0.6,0.2,0.88c0.13,0.28,0.43,0.67,0.88,1.17
			c1.2,1.32,1.98,2.31,2.33,2.97c0.35,0.67,0.53,1.3,0.53,1.89c0,0.96-0.4,1.82-1.2,2.56c-0.8,0.75-1.81,1.12-3.04,1.12
			c-0.67,0-1.44-0.16-2.31-0.47c-0.31-0.11-0.54-0.17-0.71-0.17c-0.42,0-0.73,0.21-0.94,0.64h-0.51l0.85-4.5h0.51
			c0.06,1.41,0.35,2.4,0.88,2.99c0.53,0.58,1.25,0.88,2.17,0.88c0.7,0,1.26-0.2,1.67-0.59c0.41-0.39,0.62-0.88,0.62-1.45
			c0-0.37-0.07-0.71-0.22-1.03c-0.26-0.56-0.8-1.32-1.63-2.31c-0.83-0.98-1.36-1.72-1.6-2.21c-0.24-0.49-0.35-0.98-0.35-1.47
			c0-0.9,0.33-1.66,0.98-2.28c0.65-0.62,1.49-0.93,2.52-0.93c0.3,0,0.56,0.02,0.81,0.07c0.13,0.03,0.43,0.13,0.91,0.31
			c0.48,0.18,0.79,0.27,0.95,0.27c0.4,0,0.73-0.22,1-0.65H740.18z"/>
	</g>
	<linearGradient id="SVGID_26_" gradientUnits="userSpaceOnUse" x1="184.2043" y1="185.0604" x2="229.8101" y2="185.0604">
		<stop  offset="0" style="stop-color:#1D76B8"/>
		<stop  offset="1" style="stop-color:#142C51"/>
	</linearGradient>
	<path class="st27" d="M207.01,207.86c12.56,0,22.8-10.24,22.8-22.8c0-12.56-10.24-22.8-22.8-22.8c-12.56,0-22.8,10.24-22.8,22.8
		C184.2,197.62,194.45,207.86,207.01,207.86"/>
	<linearGradient id="SVGID_27_" gradientUnits="userSpaceOnUse" x1="240.9488" y1="256.0399" x2="307.2854" y2="256.0399">
		<stop  offset="0" style="stop-color:#1D76B8"/>
		<stop  offset="1" style="stop-color:#142C51"/>
	</linearGradient>
	<path class="st28" d="M305.23,238.39c-7.81-24.15-35.74-37.02-64.28-30.66c25.05-1.96,47.91,10.59,54.86,32.07
		c8.06,24.9-8.23,52.73-36.62,63.79c-1.4,0.84-2.84,1.63-4.32,2.37c3.34-0.56,6.7-1.36,10.05-2.45
		C295.58,293.51,313.62,264.36,305.23,238.39z"/>
	<linearGradient id="SVGID_28_" gradientUnits="userSpaceOnUse" x1="132.0367" y1="311.679" x2="246.9392" y2="311.679">
		<stop  offset="0" style="stop-color:#1D76B8"/>
		<stop  offset="1" style="stop-color:#142C51"/>
	</linearGradient>
	<path class="st29" d="M246.34,243.89c-1.38-19.47-4.46-26.17-10.46-45.24c-40.52,27.33-98.81,88.59-97.61,5.84
		c-19.76,62.98,10.25,70.74,50.94,57.25c6.99-2.32,14.39,2.11,15.66,9.36c0.88,5.06,1.65,11.49,1.91,19.21
		c0-0.01-0.01-0.02-0.01-0.04c-0.31,8.57-1.26,18.31-3.18,29.17c-8.58,48.32-43.46,107.19-40.64,105.22
		c30.48-21.31,59.39-53.61,73.84-100.73C237.35,322.55,249.77,292.5,246.34,243.89z"/>
	<g>
		<linearGradient id="SVGID_29_" gradientUnits="userSpaceOnUse" x1="309.332" y1="175.1471" x2="309.332" y2="324.0311">
			<stop  offset="0" style="stop-color:#4E1615"/>
			<stop  offset="1" style="stop-color:#E82429"/>
		</linearGradient>
		<path class="st30" d="M306.15,282.73L306.15,282.73l5.08-0.46l1.3-11.64C310.87,274.81,308.73,278.87,306.15,282.73"/>
		<linearGradient id="SVGID_30_" gradientUnits="userSpaceOnUse" x1="290.5342" y1="175.1471" x2="290.5342" y2="324.0311">
			<stop  offset="0" style="stop-color:#4E1615"/>
			<stop  offset="1" style="stop-color:#E82429"/>
		</linearGradient>
		<path class="st31" d="M314.01,234.63c3.84,11.82,3.07,24.19-1.36,35.65l1.34,11.99l9.49,0.86c14.4-15.89,20.46-36.78,14.16-56.18
			c-10.11-31.14-48.25-46.66-85.17-34.67c-4.03,1.31-7.87,2.91-11.52,4.74C273.76,191.56,305,206.89,314.01,234.63z"/>
		<linearGradient id="SVGID_31_" gradientUnits="userSpaceOnUse" x1="317.903" y1="175.1471" x2="317.903" y2="324.0311">
			<stop  offset="0" style="stop-color:#4E1615"/>
			<stop  offset="1" style="stop-color:#E82429"/>
		</linearGradient>
		<path class="st32" d="M313.99,284.77l-0.87,7.82c3.49-2.64,6.69-5.53,9.57-8.61L313.99,284.77z"/>
		<linearGradient id="SVGID_32_" gradientUnits="userSpaceOnUse" x1="294.5822" y1="175.1471" x2="294.5822" y2="324.0311">
			<stop  offset="0" style="stop-color:#4E1615"/>
			<stop  offset="1" style="stop-color:#E82429"/>
		</linearGradient>
		<path class="st33" d="M276.99,307.99L276.99,307.99c4.03-0.67,8.07-1.63,12.11-2.94c8.59-2.79,16.34-6.83,23.07-11.77l-0.95-8.52
			l-6.1-0.56C298.31,293.83,288.7,302.14,276.99,307.99"/>
		<linearGradient id="SVGID_33_" gradientUnits="userSpaceOnUse" x1="303.671" y1="175.1471" x2="303.671" y2="324.0311">
			<stop  offset="0" style="stop-color:#4E1615"/>
			<stop  offset="1" style="stop-color:#E82429"/>
		</linearGradient>
		<polygon class="st34" points="320.59,294.45 309.09,304.41 313.86,322.28 306.55,307.99 286.75,310.38 305.59,301.91 
			302.1,290.33 308.28,297.92 		"/>
	</g>
</g>
</svg>
